<?xml version="1.0" encoding="UTF-8"?>
<svg id="Layer_1" data-name="Layer 1" xmlns="http://www.w3.org/2000/svg" xmlns:xlink="http://www.w3.org/1999/xlink" viewBox="0 0 1000 1000">
  <defs>
    <style>
      .cls-1 {
        fill: none;
      }

      .cls-2 {
        fill: url(#New_Pattern_2);
      }

      .cls-3 {
        fill: #112d6f;
      }
    </style>
    <pattern id="New_Pattern_2" data-name="New Pattern 2" x="0" y="0" width="74" height="120" patternTransform="translate(465.72 -1060)" patternUnits="userSpaceOnUse" viewBox="0 0 74 120">
      <g>
        <rect class="cls-1" width="74" height="120"/>
        <path class="cls-3" d="M106.87,117.18h-.02c-5.82-2.06-12.98-5.37-18.52-10.47-3.69-3.39-9.68-18.41-12.61-26.17-.6-1.59-2.85-1.58-3.45.02-2.59,6.87-7.58,19.4-11.24,24.54h0c-.5.6-1,1.14-1.51,1.61-.36.33-.67.65-.97.96,0,0-.01.01-.02.02-5.36,4.54-11.94,7.57-17.38,9.49h-.02s-4.01,1.1-4.01,1.1c-1.81.49-1.81,3.06,0,3.56l4.43,1.22c.47.15,1.22.4,1.69.55,4.47,1.71,9.49,4.16,13.89,7.51.02.01.03.02.04.04.61.69,1.32,1.42,2.18,2.21,1.31,1.2,2.59,2.88,3.83,4.83v.02c3.32,6.02,7.09,15.54,9.25,21.24.6,1.6,2.87,1.59,3.45-.01,2.84-7.78,8.61-22.69,12.28-26.07,5.03-4.62,11.37-7.78,16.85-9.85h.02c.48-.14.95-.29,1.42-.45l4.43-1.22c1.81-.5,1.81-3.07,0-3.56l-4.01-1.09Z"/>
        <path class="cls-3" d="M32.87,117.18h-.02c-5.82-2.06-12.98-5.37-18.52-10.47-3.69-3.39-9.68-18.41-12.61-26.17-.6-1.59-2.85-1.58-3.45.02-2.59,6.87-7.58,19.4-11.24,24.54h0c-.5.6-1,1.14-1.51,1.61-.36.33-.67.65-.97.96,0,0-.01.01-.02.02-5.36,4.54-11.94,7.57-17.38,9.49h-.02s-4.01,1.1-4.01,1.1c-1.81.49-1.81,3.06,0,3.56l4.43,1.22c.47.15,1.22.4,1.69.55,4.47,1.71,9.49,4.16,13.89,7.51.02.01.03.02.04.04.61.69,1.32,1.42,2.18,2.21,1.31,1.2,2.59,2.88,3.83,4.83v.02c3.32,6.02,7.09,15.54,9.25,21.24.6,1.6,2.87,1.59,3.45-.01,2.84-7.78,8.61-22.69,12.28-26.07,5.03-4.62,11.37-7.78,16.85-9.85h.02c.48-.14.95-.29,1.42-.45l4.43-1.22c1.81-.5,1.81-3.07,0-3.56l-4.01-1.09Z"/>
        <path class="cls-3" d="M143.87,57.18h-.02c-5.82-2.06-12.98-5.37-18.52-10.47-3.69-3.39-9.68-18.41-12.61-26.17-.6-1.59-2.85-1.58-3.45.02-2.59,6.87-7.58,19.4-11.24,24.54h0c-.5.6-1,1.14-1.51,1.61-.36.33-.67.65-.97.96,0,0-.01.01-.02.02-5.36,4.54-11.94,7.57-17.38,9.49h-.02s-4.01,1.1-4.01,1.1c-1.81.49-1.81,3.06,0,3.56l4.43,1.22c.47.15,1.22.4,1.69.55,4.47,1.71,9.49,4.16,13.89,7.51.02.01.03.02.04.04.61.69,1.32,1.42,2.18,2.21,1.31,1.2,2.59,2.88,3.83,4.83v.02c3.32,6.02,7.09,15.54,9.25,21.24.6,1.6,2.87,1.59,3.45-.01,2.84-7.78,8.61-22.69,12.28-26.07,5.03-4.62,11.37-7.78,16.85-9.85h.02c.48-.14.95-.29,1.42-.45l4.43-1.22c1.81-.5,1.81-3.07,0-3.56l-4.01-1.09Z"/>
        <path class="cls-3" d="M69.87,57.18h-.02c-5.82-2.06-12.98-5.37-18.52-10.47-3.69-3.39-9.68-18.41-12.61-26.17-.6-1.59-2.85-1.58-3.45.02-2.59,6.87-7.58,19.4-11.24,24.54h0c-.5.6-1,1.14-1.51,1.61-.36.33-.67.65-.97.96,0,0-.01.01-.02.02-5.36,4.54-11.94,7.57-17.38,9.49h-.02S.12,58.28.12,58.28c-1.81.49-1.81,3.06,0,3.56l4.43,1.22c.47.15,1.22.4,1.69.55,4.47,1.71,9.49,4.16,13.89,7.51.02.01.03.02.04.04.61.69,1.32,1.42,2.18,2.21,1.31,1.2,2.59,2.88,3.83,4.83v.02c3.32,6.02,7.09,15.54,9.25,21.24.6,1.6,2.87,1.59,3.45-.01,2.84-7.78,8.61-22.69,12.28-26.07,5.03-4.62,11.37-7.78,16.85-9.85h.02c.48-.14.95-.29,1.42-.45l4.43-1.22c1.81-.5,1.81-3.07,0-3.56l-4.01-1.09Z"/>
        <path class="cls-3" d="M-4.13,57.18h-.02c-5.82-2.06-12.98-5.37-18.52-10.47-3.69-3.39-9.68-18.41-12.61-26.17-.6-1.59-2.85-1.58-3.45.02-2.59,6.87-7.58,19.4-11.24,24.54h0c-.5.6-1,1.14-1.51,1.61-.36.33-.67.65-.97.96,0,0-.01.01-.02.02-5.36,4.54-11.94,7.57-17.38,9.49h-.02s-4.01,1.1-4.01,1.1c-1.81.49-1.81,3.06,0,3.56l4.43,1.22c.47.15,1.22.4,1.69.55,4.47,1.71,9.49,4.16,13.89,7.51.02.01.03.02.04.04.61.69,1.32,1.42,2.18,2.21,1.31,1.2,2.59,2.88,3.83,4.83v.02c3.32,6.02,7.09,15.54,9.25,21.24.6,1.6,2.87,1.59,3.45-.01,2.84-7.78,8.61-22.69,12.28-26.07,5.03-4.62,11.37-7.78,16.85-9.85h.02c.48-.14.95-.29,1.42-.45L-.11,61.84c1.81-.5,1.81-3.07,0-3.56l-4.01-1.09Z"/>
        <path class="cls-3" d="M106.87-2.82h-.02c-5.82-2.06-12.98-5.37-18.52-10.47-3.69-3.39-9.68-18.41-12.61-26.17-.6-1.59-2.85-1.58-3.45.02-2.59,6.87-7.58,19.4-11.24,24.54h0c-.5.6-1,1.14-1.51,1.61-.36.33-.67.65-.97.96,0,0-.01.01-.02.02-5.36,4.54-11.94,7.57-17.38,9.49h-.02s-4.01,1.1-4.01,1.1c-1.81.49-1.81,3.06,0,3.56l4.43,1.22c.47.15,1.22.4,1.69.55,4.47,1.71,9.49,4.16,13.89,7.51.02.01.03.02.04.04.61.69,1.32,1.42,2.18,2.21,1.31,1.2,2.59,2.88,3.83,4.83v.02c3.32,6.02,7.09,15.54,9.25,21.24.6,1.6,2.87,1.59,3.45-.01,2.84-7.78,8.61-22.69,12.28-26.07,5.03-4.62,11.37-7.78,16.85-9.85h.02c.48-.14.95-.29,1.42-.45l4.43-1.22c1.81-.5,1.81-3.07,0-3.56l-4.01-1.09Z"/>
        <path class="cls-3" d="M32.87-2.82h-.02c-5.82-2.06-12.98-5.37-18.52-10.47-3.69-3.39-9.68-18.41-12.61-26.17-.6-1.59-2.85-1.58-3.45.02-2.59,6.87-7.58,19.4-11.24,24.54h0c-.5.6-1,1.14-1.51,1.61-.36.33-.67.65-.97.96,0,0-.01.01-.02.02-5.36,4.54-11.94,7.57-17.38,9.49h-.02s-4.01,1.1-4.01,1.1c-1.81.49-1.81,3.06,0,3.56l4.43,1.22c.47.15,1.22.4,1.69.55,4.47,1.71,9.49,4.16,13.89,7.51.02.01.03.02.04.04.61.69,1.32,1.42,2.18,2.21,1.31,1.2,2.59,2.88,3.83,4.83v.02c3.32,6.02,7.09,15.54,9.25,21.24.6,1.6,2.87,1.59,3.45-.01,2.84-7.78,8.61-22.69,12.28-26.07,5.03-4.62,11.37-7.78,16.85-9.85h.02c.48-.14.95-.29,1.42-.45l4.43-1.22c1.81-.5,1.81-3.07,0-3.56l-4.01-1.09Z"/>
      </g>
    </pattern>
  </defs>
  <rect class="cls-2" x="30.23" y="27.04" width="939.54" height="945.91"/>
</svg>