<?xml version="1.0" encoding="UTF-8"?>
<svg id="Layer_1" data-name="Layer 1" xmlns="http://www.w3.org/2000/svg" viewBox="0 0 1000 1000">
  <defs>
    <style>
      .cls-1 {
        fill: #7226ff;
      }

      .cls-2 {
        fill: #160078;
      }
    </style>
  </defs>
  <g>
    <path class="cls-2" d="M409.35,386.45c-.08,0-7.89.66-17.8-3.99,5.7-11.01,6.59-26.78-1.21-33.52-2.5-2.16-6.3-1.88-8.47.62-2.16,2.5-1.88,6.3.62,8.46,2.12,1.83,2.35,10.74-1.12,18.02-2.46-1.99-4.82-4.27-7.03-6.77-5.27-5.97-9.88-12.44-13.37-18.75,2.64-2.16,5.24-4.3,7.86-6.59,11.12-9.72,10.34-20.8,4.62-27.47-5.58-6.52-16.66-9.31-24.82-2.46-3.77,3.17-5.99,7.84-6.42,13.52-.42,5.62.92,12.43,3.87,19.73-11.89,10.16-23.37,22.52-12.98,40.64,4.3,7.49,12.24,12,22.37,12.69.87.06,1.74.09,2.61.09h.04c9.3,0,18.84-3.24,25.65-8.7,13.85,7.36,25.39,6.54,26.69,6.42,3.27-.31,5.68-3.23,5.39-6.51-.29-3.26-3.2-5.7-6.5-5.44ZM360.93,334.9c-1.67,1.46-3.36,2.88-5.03,4.26-1.34-4.09-1.93-7.78-1.71-10.74.18-2.41.91-4.17,2.16-5.22.91-.77,2.03-1.17,3.22-1.17,1.75,0,3.58.86,4.76,2.24,3.38,3.94-1.26,8.74-3.41,10.62ZM373.1,384.79c-4.93,2.8-11.11,4.23-16.81,3.83-3.48-.24-9.76-1.42-12.78-6.69-5.21-9.08-1.61-14.95,8.09-23.55,3.73,6.4,8.36,12.74,13.75,18.84,2.44,2.76,5.04,5.3,7.75,7.56Z"/>
    <path class="cls-2" d="M263.67,318.03c-2.82-2.31-6.02-4.08-9.6-5.37-7.19-2.59-15.83-2.59-23.14,0-3.62,1.29-6.8,3.06-9.44,5.25-2.23,1.84-4.1,3.98-5.54,6.33-2,3.25-3.06,7.23-3.06,11.54v61.97c0,1.45,1.18,2.63,2.61,2.63h21.85c1.45,0,2.63-1.18,2.63-2.63v-10.01c0-1.43,1.16-2.61,2.59-2.61s2.59,1.18,2.59,2.61v10.01c0,1.45,1.18,2.63,2.63,2.63h21.85c1.43,0,2.61-1.18,2.61-2.63v-60.87c0-7.5-3.11-14.36-8.54-18.85ZM245.14,369.03c0,1.43-1.16,2.59-2.59,2.59s-2.59-1.16-2.59-2.59v-43.67c0-3.21,1.8-3.57,2.59-3.57s2.59.35,2.59,3.57v43.67Z"/>
    <path class="cls-2" d="M300.9,312.01h-15.09c-3.29,0-6,2.68-6,6v76.37c0,3.29,2.7,6,6,6h15.09c3.31,0,6-2.7,6-6v-76.37c0-3.31-2.68-6-6-6Z"/>
    <path class="cls-2" d="M471.45,312.32h-50.55c-3.31,0-6,2.68-6,6v7.97c0,3.31,2.68,6,6,6h8.03c2.06,0,3.7,1.67,3.7,3.7v58.68c0,3.31,2.7,6.01,6.02,6.01h15.05c3.33,0,6.02-2.7,6.02-6.01v-58.68c0-2.04,1.67-3.7,3.7-3.7h8.03c3.31,0,6.02-2.68,6.02-6v-7.97c0-3.31-2.7-6-6.02-6Z"/>
    <path class="cls-2" d="M537.67,312.32h-16.87c-2.8,0-5.09,2.27-5.09,5.09v31.98c0,1.84-.98,2.92-2.59,2.92s-2.61-1.08-2.61-2.92v-31.98c0-2.82-2.29-5.09-5.09-5.09h-16.87c-2.82,0-5.09,2.27-5.09,5.09v78.16c0,2.82,2.27,5.11,5.09,5.11h16.87c2.8,0,5.09-2.29,5.09-5.11v-31.98c0-1.82.98-2.92,2.61-2.92s2.59,1.1,2.59,2.92v31.98c0,2.82,2.29,5.11,5.09,5.11h16.87c2.82,0,5.11-2.29,5.11-5.11v-78.16c0-2.82-2.29-5.09-5.11-5.09Z"/>
    <path class="cls-2" d="M574.49,312.32h-19.51c-2.08,0-3.78,1.68-3.78,3.78v80.78c0,2.1,1.7,3.8,3.78,3.8h19.51c2.08,0,3.78-1.7,3.78-3.8v-80.78c0-2.1-1.7-3.78-3.78-3.78Z"/>
    <path class="cls-2" d="M644.34,312.32h-23.75c-.92,0-1.67.74-1.67,1.65v36.11c0,.65-.47,1.18-1.12,1.25-.65.1-1.23-.33-1.39-.96l-8.62-36.78c-.18-.74-.84-1.27-1.61-1.27h-17.85c-.92,0-1.67.74-1.67,1.65v85.05c0,.92.74,1.67,1.67,1.67h23.75c.92,0,1.67-.74,1.67-1.67v-36.09c0-.67.47-1.2,1.12-1.27h.16c.59,0,1.1.39,1.23.98l8.62,36.76c.18.76.84,1.29,1.63,1.29h17.83c.92,0,1.67-.74,1.67-1.67v-85.05c0-.9-.74-1.65-1.67-1.65Z"/>
    <path class="cls-2" d="M710.83,358.25h-22.84c-1.18,0-2.12.96-2.12,2.12v30.33c0,1.82-.98,2.92-2.61,2.92s-2.59-1.1-2.59-2.92v-68.12c0-2.88,1.82-3.17,2.59-3.17s2.61.29,2.61,3.17v14.32c0,1.16.94,2.12,2.12,2.12h22.84c1.16,0,2.12-.96,2.12-2.12,0-6.29-2.12-11.95-5.92-16.09-.84-.9-1.78-1.78-2.76-2.59-2.7-2.19-5.9-3.96-9.46-5.25-3.61-1.29-7.46-1.94-11.54-1.94s-7.95.65-11.6,1.94c-3.62,1.29-6.82,3.06-9.46,5.25-2.72,2.25-4.88,4.94-6.45,7.94-1.43,2.74-2.16,6-2.16,9.66v42.1c0,3.25.78,6.37,2.31,9.21,1.55,2.88,3.66,5.47,6.29,7.64,2.65,2.19,5.82,3.96,9.46,5.25,3.64,1.29,7.54,1.94,11.6,1.94,3.23,0,6.35-.41,9.25-1.23,2.94-.84,5.62-1.98,8.01-3.39.16-.1,12.42-6.76,12.42-16.56v-20.42c0-1.16-.96-2.12-2.12-2.12Z"/>
    <path class="cls-2" d="M754.11,343.9h21.24c1.61,0,2.92-1.31,2.92-2.92v-3.82c0-7.48-3.12-14.36-8.54-18.83-2.84-2.31-6.03-4.08-9.6-5.37-7.21-2.59-15.89-2.57-23.16-.06-3.62,1.23-6.8,2.98-9.44,5.17-2.63,2.19-4.76,4.74-6.29,7.58-1.53,2.82-2.31,5.86-2.31,9.03v10.7c0,2.84.72,5.07,2.17,6.64,1.49,1.65,3.39,2.92,5.6,3.8,2.29.92,4.82,1.61,7.52,2.02,2.8.43,5.39.86,7.78,1.29,2.43.45,4.53,1.06,6.19,1.8,2.47,1.14,3,2.98,3,4.31v24.78c0,3.21-1.82,3.57-2.61,3.57s-2.59-.35-2.59-3.57v-20.63c0-1.61-1.31-2.9-2.92-2.9h-21.24c-1.61,0-2.92,1.29-2.92,2.9v8.5c0,3.25.78,6.37,2.31,9.21,1.55,2.88,3.66,5.47,6.29,7.64,2.65,2.19,5.82,3.96,9.46,5.25,7.29,2.59,15.97,2.57,23.14.06,3.59-1.23,6.78-2.98,9.46-5.17,2.23-1.84,4.11-3.92,5.56-6.21,2.04-3.21,3.12-7.25,3.12-11.64v-11.91c0-3.62-.74-6.37-2.21-8.15-1.49-1.84-3.35-3.19-5.54-4.04-2.27-.86-4.76-1.35-7.45-1.49-2.82-.12-5.45-.29-7.78-.51-.78-.08-1.51-.16-2.21-.27-4.04-.65-7.07-4.27-7.07-8.44v-19.3c0-3.21,1.82-3.55,2.59-3.55s2.61.33,2.61,3.55v18.04c0,1.61,1.29,2.92,2.92,2.92Z"/>
  </g>
  <g>
    <path class="cls-1" d="M511.12,590.3c-.08,0-7.89.66-17.8-3.99,5.7-11.01,6.59-26.78-1.21-33.52-2.5-2.16-6.3-1.88-8.47.62-2.16,2.5-1.88,6.3.62,8.46,2.12,1.83,2.35,10.74-1.12,18.02-2.46-1.99-4.82-4.27-7.03-6.77-5.27-5.97-9.88-12.44-13.37-18.75,2.64-2.16,5.24-4.3,7.86-6.59,11.12-9.72,10.34-20.8,4.62-27.47-5.58-6.52-16.66-9.31-24.82-2.46-3.77,3.17-5.99,7.84-6.42,13.52-.42,5.62.92,12.43,3.87,19.73-11.89,10.16-23.37,22.52-12.98,40.64,4.3,7.49,12.24,12,22.37,12.69.87.06,1.74.09,2.61.09h.04c9.3,0,18.84-3.24,25.65-8.7,13.85,7.36,25.39,6.54,26.69,6.42,3.27-.31,5.68-3.23,5.39-6.51-.29-3.26-3.2-5.7-6.5-5.44ZM462.7,538.75c-1.67,1.46-3.36,2.88-5.03,4.26-1.34-4.09-1.93-7.78-1.71-10.74.18-2.41.91-4.17,2.16-5.22.91-.77,2.03-1.17,3.22-1.17,1.75,0,3.58.86,4.76,2.24,3.38,3.94-1.26,8.74-3.41,10.62ZM474.87,588.63c-4.93,2.8-11.11,4.23-16.81,3.83-3.48-.24-9.76-1.42-12.78-6.69-5.21-9.08-1.61-14.95,8.09-23.55,3.73,6.4,8.36,12.74,13.75,18.84,2.44,2.76,5.04,5.3,7.75,7.56Z"/>
    <path class="cls-1" d="M365.44,521.87c-2.82-2.31-6.02-4.08-9.6-5.37-7.19-2.59-15.83-2.59-23.14,0-3.62,1.29-6.8,3.06-9.44,5.25-2.23,1.84-4.1,3.98-5.54,6.33-2,3.25-3.06,7.23-3.06,11.54v61.97c0,1.45,1.18,2.63,2.61,2.63h21.85c1.45,0,2.63-1.18,2.63-2.63v-10.01c0-1.43,1.16-2.61,2.59-2.61s2.59,1.18,2.59,2.61v10.01c0,1.45,1.18,2.63,2.63,2.63h21.85c1.43,0,2.61-1.18,2.61-2.63v-60.87c0-7.5-3.11-14.36-8.54-18.85ZM346.91,572.87c0,1.43-1.16,2.59-2.59,2.59s-2.59-1.16-2.59-2.59v-43.67c0-3.21,1.8-3.57,2.59-3.57s2.59.35,2.59,3.57v43.67Z"/>
    <path class="cls-1" d="M402.67,515.86h-15.09c-3.29,0-6,2.68-6,6v76.37c0,3.29,2.7,6,6,6h15.09c3.31,0,6-2.7,6-6v-76.37c0-3.31-2.68-6-6-6Z"/>
    <path class="cls-1" d="M371.2,620.59h-50.55c-3.31,0-6,2.68-6,6v7.97c0,3.31,2.68,6,6,6h8.03c2.06,0,3.7,1.67,3.7,3.7v58.68c0,3.31,2.7,6.01,6.02,6.01h15.05c3.33,0,6.02-2.7,6.02-6.01v-58.68c0-2.04,1.67-3.7,3.7-3.7h8.03c3.31,0,6.02-2.68,6.02-6v-7.97c0-3.31-2.7-6-6.02-6Z"/>
    <path class="cls-1" d="M437.42,620.59h-16.87c-2.8,0-5.09,2.27-5.09,5.09v31.98c0,1.84-.98,2.92-2.59,2.92s-2.61-1.08-2.61-2.92v-31.98c0-2.82-2.29-5.09-5.09-5.09h-16.87c-2.82,0-5.09,2.27-5.09,5.09v78.16c0,2.82,2.27,5.11,5.09,5.11h16.87c2.8,0,5.09-2.29,5.09-5.11v-31.98c0-1.82.98-2.92,2.61-2.92s2.59,1.1,2.59,2.92v31.98c0,2.82,2.29,5.11,5.09,5.11h16.87c2.82,0,5.11-2.29,5.11-5.11v-78.16c0-2.82-2.29-5.09-5.11-5.09Z"/>
    <path class="cls-1" d="M474.24,620.59h-19.51c-2.08,0-3.78,1.68-3.78,3.78v80.78c0,2.1,1.7,3.8,3.78,3.8h19.51c2.08,0,3.78-1.7,3.78-3.8v-80.78c0-2.1-1.7-3.78-3.78-3.78Z"/>
    <path class="cls-1" d="M544.09,620.59h-23.75c-.92,0-1.67.74-1.67,1.65v36.11c0,.65-.47,1.18-1.12,1.25-.65.1-1.23-.33-1.39-.96l-8.62-36.78c-.18-.74-.84-1.27-1.61-1.27h-17.85c-.92,0-1.67.74-1.67,1.65v85.05c0,.92.74,1.67,1.67,1.67h23.75c.92,0,1.67-.74,1.67-1.67v-36.09c0-.67.47-1.2,1.12-1.27h.16c.59,0,1.1.39,1.23.98l8.62,36.76c.18.76.84,1.29,1.63,1.29h17.83c.92,0,1.67-.74,1.67-1.67v-85.05c0-.9-.74-1.65-1.67-1.65Z"/>
    <path class="cls-1" d="M610.59,666.51h-22.84c-1.18,0-2.12.96-2.12,2.12v30.33c0,1.82-.98,2.92-2.61,2.92s-2.59-1.1-2.59-2.92v-68.12c0-2.88,1.82-3.17,2.59-3.17s2.61.29,2.61,3.17v14.32c0,1.16.94,2.12,2.12,2.12h22.84c1.16,0,2.12-.96,2.12-2.12,0-6.29-2.12-11.95-5.92-16.09-.84-.9-1.78-1.78-2.76-2.59-2.7-2.19-5.9-3.96-9.46-5.25-3.61-1.29-7.46-1.94-11.54-1.94s-7.95.65-11.6,1.94c-3.62,1.29-6.82,3.06-9.46,5.25-2.72,2.25-4.88,4.94-6.45,7.94-1.43,2.74-2.16,6-2.16,9.66v42.1c0,3.25.78,6.37,2.31,9.21,1.55,2.88,3.66,5.47,6.29,7.64,2.65,2.19,5.82,3.96,9.46,5.25,3.64,1.29,7.54,1.94,11.6,1.94,3.23,0,6.35-.41,9.25-1.23,2.94-.84,5.62-1.98,8.01-3.39.16-.1,12.42-6.76,12.42-16.56v-20.42c0-1.16-.96-2.12-2.12-2.12Z"/>
    <path class="cls-1" d="M653.87,652.17h21.24c1.61,0,2.92-1.31,2.92-2.92v-3.82c0-7.48-3.12-14.36-8.54-18.83-2.84-2.31-6.03-4.08-9.6-5.37-7.21-2.59-15.89-2.57-23.16-.06-3.62,1.23-6.8,2.98-9.44,5.17-2.63,2.19-4.76,4.74-6.29,7.58-1.53,2.82-2.31,5.86-2.31,9.03v10.7c0,2.84.72,5.07,2.17,6.64,1.49,1.65,3.39,2.92,5.6,3.8,2.29.92,4.82,1.61,7.52,2.02,2.8.43,5.39.86,7.78,1.29,2.43.45,4.53,1.06,6.19,1.8,2.47,1.14,3,2.98,3,4.31v24.78c0,3.21-1.82,3.57-2.61,3.57s-2.59-.35-2.59-3.57v-20.63c0-1.61-1.31-2.9-2.92-2.9h-21.24c-1.61,0-2.92,1.29-2.92,2.9v8.5c0,3.25.78,6.37,2.31,9.21,1.55,2.88,3.66,5.47,6.29,7.64,2.65,2.19,5.82,3.96,9.46,5.25,7.29,2.59,15.97,2.57,23.14.06,3.59-1.23,6.78-2.98,9.46-5.17,2.23-1.84,4.11-3.92,5.56-6.21,2.04-3.21,3.12-7.25,3.12-11.64v-11.91c0-3.62-.74-6.37-2.21-8.15-1.49-1.84-3.35-3.19-5.54-4.04-2.27-.86-4.76-1.35-7.45-1.49-2.82-.12-5.45-.29-7.78-.51-.78-.08-1.51-.16-2.21-.27-4.04-.65-7.07-4.27-7.07-8.44v-19.3c0-3.21,1.82-3.55,2.59-3.55s2.61.33,2.61,3.55v18.04c0,1.61,1.29,2.92,2.92,2.92Z"/>
  </g>
</svg>