<?xml version="1.0" encoding="UTF-8"?>
<svg id="Layer_1" data-name="Layer 1" xmlns="http://www.w3.org/2000/svg" xmlns:xlink="http://www.w3.org/1999/xlink" viewBox="0 0 1000 1000">
  <defs>
    <style>
      .cls-1 {
        fill: #f4f4f4;
      }

      .cls-2 {
        fill: #7226ff;
      }

      .cls-3 {
        fill: url(#linear-gradient);
      }
    </style>
    <linearGradient id="linear-gradient" x1="495.58" y1="536.48" x2="495.58" y2="329.29" gradientUnits="userSpaceOnUse">
      <stop offset="0" stop-color="#7226ff"/>
      <stop offset="1" stop-color="#87f5f5"/>
    </linearGradient>
  </defs>
  <g>
    <path class="cls-3" d="M542.29,460.52c19.38-.92,37.2,4.28,54.48,12.03,1.47.66,1.75,1.27,1.78,2.86.26,13.41-2.41,26.06-9.71,37.45-9.64,15.05-23.34,22.71-41.4,22.66-43.64-.11-87.28-.07-130.91.05-3.48,0-4.42-.96-4.33-4.4.66-26.27,12.14-47.22,31.31-64.44,3.1-2.78,6.5-5.21,10.72-7.66-4.88-.74-9.17-1.29-13.43-2.05-12.2-2.18-24.34-4.62-34.82-11.82-6.47-4.44-11.92-9.68-13.23-18.03-.92-5.91,1.79-10.83,7.62-12.57,4.3-1.28,8.73-2.12,13.06-3.29,12.5-3.4,17.12-8.84,18.59-21.7,3.02-26.47,23.13-49.71,49.07-56.72,40.75-11.02,82.1,13.72,90.5,55.07,5.77,28.4-3.84,51.82-26.44,69.89-.89.71-1.83,1.34-2.74,2.02-.05.04-.04.17-.13.63Z"/>
    <g>
      <path class="cls-1" d="M465.77,448.76c-18.79-.62-36.88-4.26-53.76-12.83-3.11-1.58-6.25-3.26-8.43-6.14-2.31-3.05-1.68-4.94,1.99-5.8,3.18-.74,6.43-1.17,9.62-1.88,5.91-1.32,11.14-4.01,15.96-7.71,5.68-4.36,10.25-4,15.32,1.18,7.62,7.81,15.55,15.22,24.87,21,1.46.91,2.54,2.25,3.3,3.81,2,4.1.31,7.23-4.14,8.01-1.58.27-3.14.44-4.73.37Z"/>
      <path class="cls-1" d="M526.12,388.47h-.02c-4.14-1.46-9.24-3.82-13.18-7.45-2.62-2.41-6.89-13.11-8.98-18.63-.43-1.13-2.03-1.12-2.45.01-1.84,4.89-5.39,13.81-8,17.47h0c-.35.43-.71.81-1.07,1.15-.25.23-.48.46-.69.68,0,0,0,0-.01.01-3.82,3.23-8.5,5.39-12.37,6.75h-.01s-2.85.78-2.85.78c-1.29.35-1.29,2.18,0,2.53l3.15.87,1.2.39c3.18,1.22,6.75,2.96,9.89,5.35.01,0,.02.02.03.03.43.49.94,1.01,1.55,1.57.93.86,1.85,2.05,2.73,3.44h0c2.36,4.29,5.04,11.07,6.58,15.13.43,1.14,2.04,1.13,2.46,0,2.02-5.54,6.13-16.15,8.74-18.55,3.58-3.29,8.1-5.54,12-7.01h.02c.34-.1.68-.21,1.01-.32l3.15-.87c1.29-.36,1.29-2.18,0-2.53l-2.85-.78Z"/>
    </g>
  </g>
  <g>
    <path class="cls-2" d="M401.33,652.78c-.09,0-8.63.72-19.46-4.36,6.23-12.04,7.2-29.27-1.33-36.64-2.74-2.36-6.89-2.06-9.25.68-2.36,2.74-2.06,6.89.68,9.25,2.31,2,2.56,11.73-1.22,19.7-2.69-2.18-5.27-4.66-7.68-7.4-5.76-6.52-10.8-13.59-14.62-20.5,2.89-2.36,5.73-4.7,8.59-7.2,12.15-10.63,11.3-22.74,5.05-30.02-6.1-7.12-18.21-10.18-27.13-2.69-4.12,3.46-6.55,8.57-7.01,14.78-.46,6.14,1,13.58,4.23,21.56-12.99,11.1-25.55,24.62-14.19,44.42,4.7,8.19,13.38,13.12,24.45,13.87.95.06,1.9.1,2.85.1h.05c10.17,0,20.59-3.54,28.04-9.51,15.14,8.04,27.75,7.15,29.17,7.02,3.57-.34,6.21-3.53,5.89-7.12-.32-3.56-3.5-6.24-7.11-5.95ZM348.4,596.43c-1.83,1.6-3.67,3.14-5.5,4.66-1.46-4.48-2.11-8.51-1.87-11.73.2-2.64.99-4.56,2.36-5.71,1-.84,2.22-1.28,3.52-1.28,1.92,0,3.91.94,5.21,2.45,3.69,4.31-1.37,9.56-3.72,11.61ZM361.71,650.95c-5.39,3.06-12.14,4.62-18.37,4.19-3.8-.26-10.67-1.56-13.97-7.31-5.69-9.92-1.75-16.34,8.84-25.74,4.08,7,9.13,13.92,15.03,20.6,2.67,3.02,5.51,5.79,8.48,8.26Z"/>
    <path class="cls-2" d="M242.1,577.98c-3.08-2.53-6.57-4.45-10.49-5.87-7.86-2.83-17.3-2.83-25.29,0-3.96,1.41-7.43,3.34-10.32,5.74-2.44,2.01-4.48,4.35-6.06,6.92-2.18,3.55-3.34,7.9-3.34,12.61v67.74c0,1.58,1.29,2.87,2.85,2.87h23.88c1.59,0,2.87-1.28,2.87-2.87v-10.94c0-1.56,1.26-2.85,2.83-2.85s2.83,1.28,2.83,2.85v10.94c0,1.58,1.28,2.87,2.87,2.87h23.88c1.56,0,2.85-1.28,2.85-2.87v-66.54c0-8.2-3.4-15.7-9.34-20.6ZM221.84,633.73c0,1.56-1.26,2.83-2.83,2.83s-2.83-1.26-2.83-2.83v-47.73c0-3.51,1.97-3.9,2.83-3.9s2.83.39,2.83,3.9v47.73Z"/>
    <path class="cls-2" d="M282.79,571.41h-16.49c-3.6,0-6.55,2.93-6.55,6.55v83.48c0,3.6,2.96,6.55,6.55,6.55h16.49c3.62,0,6.55-2.96,6.55-6.55v-83.48c0-3.62-2.93-6.55-6.55-6.55Z"/>
    <path class="cls-2" d="M469.2,571.75h-55.25c-3.62,0-6.55,2.93-6.55,6.55v8.72c0,3.62,2.93,6.55,6.55,6.55h8.78c2.25,0,4.05,1.82,4.05,4.05v64.14c0,3.62,2.96,6.57,6.57,6.57h16.45c3.64,0,6.57-2.96,6.57-6.57v-64.14c0-2.23,1.82-4.05,4.05-4.05h8.78c3.62,0,6.57-2.93,6.57-6.55v-8.72c0-3.62-2.96-6.55-6.57-6.55Z"/>
    <path class="cls-2" d="M541.59,571.75h-18.44c-3.06,0-5.57,2.48-5.57,5.57v34.95c0,2.01-1.07,3.19-2.83,3.19s-2.85-1.18-2.85-3.19v-34.95c0-3.08-2.51-5.57-5.57-5.57h-18.44c-3.08,0-5.57,2.48-5.57,5.57v85.42c0,3.08,2.48,5.59,5.57,5.59h18.44c3.06,0,5.57-2.51,5.57-5.59v-34.95c0-1.99,1.07-3.19,2.85-3.19s2.83,1.2,2.83,3.19v34.95c0,3.08,2.51,5.59,5.57,5.59h18.44c3.08,0,5.59-2.51,5.59-5.59v-85.42c0-3.08-2.51-5.57-5.59-5.57Z"/>
    <path class="cls-2" d="M581.83,571.75h-21.33c-2.27,0-4.13,1.84-4.13,4.13v88.29c0,2.29,1.86,4.15,4.13,4.15h21.33c2.27,0,4.13-1.86,4.13-4.15v-88.29c0-2.29-1.86-4.13-4.13-4.13Z"/>
    <path class="cls-2" d="M658.17,571.75h-25.95c-1.01,0-1.82.81-1.82,1.8v39.47c0,.71-.51,1.28-1.22,1.37-.71.11-1.35-.36-1.52-1.05l-9.42-40.2c-.19-.81-.92-1.39-1.76-1.39h-19.51c-1.01,0-1.82.81-1.82,1.8v92.96c0,1.01.81,1.82,1.82,1.82h25.96c1.01,0,1.82-.81,1.82-1.82v-39.45c0-.73.51-1.31,1.22-1.39h.17c.64,0,1.2.43,1.35,1.07l9.42,40.17c.19.84.92,1.41,1.78,1.41h19.49c1.01,0,1.82-.81,1.82-1.82v-92.96c0-.99-.81-1.8-1.82-1.8Z"/>
    <path class="cls-2" d="M730.85,621.94h-24.97c-1.29,0-2.31,1.05-2.31,2.31v33.15c0,1.99-1.07,3.19-2.85,3.19s-2.83-1.2-2.83-3.19v-74.46c0-3.15,1.99-3.47,2.83-3.47s2.85.32,2.85,3.47v15.65c0,1.26,1.03,2.31,2.31,2.31h24.97c1.26,0,2.31-1.05,2.31-2.31,0-6.87-2.31-13.06-6.47-17.58-.92-.99-1.95-1.95-3.02-2.83-2.96-2.4-6.45-4.33-10.34-5.74-3.94-1.41-8.16-2.12-12.61-2.12s-8.69.71-12.68,2.12c-3.96,1.41-7.45,3.34-10.34,5.74-2.98,2.46-5.33,5.4-7.05,8.67-1.56,3-2.36,6.55-2.36,10.56v46.02c0,3.55.86,6.96,2.53,10.07,1.69,3.15,4,5.97,6.87,8.35,2.89,2.4,6.36,4.33,10.34,5.74,3.98,1.41,8.25,2.12,12.68,2.12,3.53,0,6.94-.45,10.11-1.35,3.21-.92,6.15-2.16,8.76-3.7.17-.11,13.58-7.39,13.58-18.1v-22.31c0-1.26-1.05-2.31-2.31-2.31Z"/>
    <path class="cls-2" d="M778.16,606.27h23.21c1.76,0,3.19-1.43,3.19-3.19v-4.18c0-8.18-3.41-15.7-9.34-20.58-3.11-2.53-6.6-4.45-10.49-5.87-7.88-2.83-17.37-2.81-25.31-.06-3.96,1.35-7.43,3.26-10.32,5.65-2.87,2.4-5.2,5.18-6.87,8.29-1.67,3.08-2.53,6.4-2.53,9.87v11.69c0,3.11.79,5.55,2.38,7.26,1.63,1.8,3.7,3.19,6.12,4.15,2.51,1.01,5.27,1.76,8.22,2.21,3.06.47,5.89.94,8.5,1.41,2.66.49,4.95,1.16,6.77,1.97,2.7,1.24,3.28,3.26,3.28,4.71v27.09c0,3.51-1.99,3.9-2.85,3.9s-2.83-.39-2.83-3.9v-22.55c0-1.76-1.43-3.17-3.19-3.17h-23.21c-1.76,0-3.19,1.41-3.19,3.17v9.29c0,3.55.86,6.96,2.53,10.07,1.69,3.15,4,5.97,6.87,8.35,2.89,2.4,6.36,4.33,10.34,5.74,7.97,2.83,17.45,2.81,25.29.06,3.92-1.35,7.41-3.26,10.34-5.65,2.44-2.01,4.5-4.28,6.08-6.79,2.23-3.51,3.41-7.92,3.41-12.72v-13.02c0-3.96-.81-6.96-2.42-8.91-1.63-2.01-3.66-3.49-6.06-4.41-2.48-.94-5.2-1.48-8.14-1.63-3.08-.13-5.95-.32-8.5-.56-.86-.09-1.65-.17-2.42-.3-4.41-.71-7.73-4.67-7.73-9.23v-21.09c0-3.51,1.99-3.88,2.83-3.88s2.85.36,2.85,3.88v19.72c0,1.76,1.41,3.19,3.19,3.19Z"/>
  </g>
</svg>