<?xml version="1.0" encoding="UTF-8"?>
<svg id="Layer_1" data-name="Layer 1" xmlns="http://www.w3.org/2000/svg" xmlns:xlink="http://www.w3.org/1999/xlink" viewBox="0 0 1000 1000">
  <defs>
    <style>
      .cls-1 {
        fill: #160078;
      }

      .cls-2 {
        fill: url(#linear-gradient);
      }
    </style>
    <linearGradient id="linear-gradient" x1=".62" y1="500.66" x2="1003.51" y2="500.66" gradientUnits="userSpaceOnUse">
      <stop offset="0" stop-color="#7226ff"/>
      <stop offset="1" stop-color="#87f5f5"/>
    </linearGradient>
  </defs>
  <rect class="cls-2" x=".62" y="-.79" width="1002.89" height="1002.89"/>
  <g>
    <path class="cls-1" d="M348.55,444.98l.14.18c1.12,1.47,3.75,2.32,3.83,4.5.9,8.44,4.17,17.2,10.68,22.49,5.78,4.49,14.06,6.54,21.58,6.99,14.27-.35,27.96-12.42,26.11-27.38-.56-3.58-1.53-7.33-2.35-10.78-.5-.77-2.15-.84-2.85-1.5-1.16-.85-1.76-2.18-2.03-3.59-.53-2.82-.03-4.56-.82-6.76-4.11-16.11-1.63-25.97-17.19-35.63-2.58-1.24-5.59-1.85-8.14-2.36-2.75-.71-4.65-.49-5.76-2.34-1.01-2.01-.54-5.93-3.17-7.02-1.51-.66-3.88-.24-4.46,1.44-.34,1.52.11,3.33.12,5.11.09,1.65.22,3.07.18,3.33-.06.15-.13.17-.29.27-.89.5-4.36,2.43-6.11,3.41-1.59.81-2.11,1.33-3.27,2.52-4.53,4.57-7.34,11.77-7.74,17.38-.53,4.17.93,9.07,1.43,14.54-1.91,6.13-4.29,9.3.1,15.19ZM403.69,447.04l.04.11c8.23,28.01-33.93,34.81-42.75,10.98-1.03-3.33-1.75-6.7-2.22-10.18.13-.86,1.16-.97,1.81-1.39,3.1-1.66,4.9-4.71,5.06-8.29.06-.51.23-.79.73-.32,4.81,4.64,8.52,9.52,12.79,14.1.27.29.44.45.56.48,1.35-.1,22.82-5.71,23.98-5.48ZM370.17,397.07l.21-.03c10.28-1.58,20.07,4.94,22.52,15.27.57,2.63,3.87,19.92,5.34,27.49.24,1.52.57,2.34.39,2.48-1.71.4-5.06,1.19-7.33,1.72-2.97.7-5.98,1.4-8.91,2.09-1.14.29-.77.19-1.43-.47-4.08-4.56-8.9-9.97-12.87-14.39-1.05-.09-3.63.68-4.6.7-.45,0-.71-.29-1.03-.59-1.75-1.73-3.94-2.58-6.48-2.74-.45-.05-1,.02-1.06-.49-.29-1.92-1.25-6.97-1.62-9.63-1.38-10.45,6.75-19.82,16.88-21.41ZM355.49,434.63l.16-.02c5.01-.53,5.74,6.34,1.28,7.49-4.81,1.07-6.35-6.66-1.44-7.46Z"/>
    <path class="cls-1" d="M760.41,562.3l-.05-.18c-.85-1.81-2.99-2.36-5.04-2.24-7.39-.12-25.88.18-28.44-.18-.59-12.93-.09-27.79-.21-40.94-.03-3.54.71-5.8-2.73-5.94-8.7-.2-33.46.41-35.71-.15-2.57-13.3-8.24-25.39-16.74-35.8-3.27-3.8-7.09-6.99-11.2-10.12-.86-.56-2.43-1.54-9.25-1.54-.84.1-1.65.21-2.44.32,5.2-11.62,8.91-34.92,5.91-45.53-10.55-38.54-62.92-42.31-79.37-6.29-.54.87-.54,1.69-.67,2.64-.17.55-.71,1.02-.75,1.72-.04.32-.03.65-.06.96-.26.82-.51,1.65-.57,2.56-.69,1.6-.85,3.25-.91,5.02-.52,2.85-1.23,4.05-3.69,5.42-.67.4-.83.85-1.25,1.03-.42.17-1.12.08-1.63.16-5.31.67-11.7,1.95-14.37,7.09-3.05,5.76.45,12.87,4.83,16.98.31.46.63,1.21,1.11,1.54,5.74,3.15,11.69,6.16,18.24,7.32,5.53,1.36,11.45,1.63,17,2.66,1.35.21.86,1.59.41,2.43-1.26,2.35-7.47,23.18-8.1,25.01h0c-.36.96-.65,1.95-.85,2.96-1.92,10.36-6.99,36.95-7.53,39.98-.09.25-.32.2-.75.35-3.65.89-14.04,2.82-16.95,3.21-9.22,1.4-15.94,3.79-22.4,8.18-1.5,1.62-3.58,3.19-4.96,4.97-1.21,1.12-1.98,3.22-3.62,3.97-26.38-.27-52.74.62-78.29-.45-2.91.12-.51-5.04-.77-6.69.26-2.62.65-5.05.62-7.7,1.15-4.03.7-8.7,1.38-12.88,1.19-3.86.42-8.14,1.4-11.99.03-2.05.04-4.06.59-6.07-.04-1.97.03-3.86.57-5.73-.18-2.85.68-5.34.61-8.21-.04-1.3.63-2.29.49-3.66.11-1.29-.23-7.09,1.51-6.89,19.51,3.91,38.72-15.89,29.37-35.1-2.53-4.4-1.01-3.97-7.01-2.51-9.51,2.34-36.11,8.89-38.05,9.36-6.62,1.5-12.95,5.45-12.36,12.39-.24.65-1.43.57-2.13,1.19-.56.41-1.01,1.19-1.21,1.8-.58,2.25-8.84,33.29-11.61,43.76-.62,1.69-1.83.51-2.06-.88-2.68-7.68-6-15.09-12-20.45-12.92-12.68-35.03-23.71-52.7-19.14-.57-.06-1.08-.33-1.46-.76-6.06-7.32-17.75-8.28-24.86-1.5-2.64,2.36-4.49,5.43-5.57,8.74-.34.75-1.2,1.12-1.99.94-1.1-.31-2.64-.58-3.41.29-.69,1.96-8.72,23.47-9.31,25.03-7.16.15-22.24.22-29.82.32-.02,0-.04,0-.05,0-2.02.04-3.64,1.67-3.64,3.69,0,10.54.09,40.5-.1,42.67-.22.18-.84.5-1.19.49-1.97,0-20.49-.05-22.12-.05-.77,0-2.15.39-2.57,1.22-.85,1.21-.34,3.52,1.19,3.92,2.96.1,28.73.07,37.15.1.26.02.34-.06,1,.07.59.14.96.56,1.22,1.11,1.59,3.9,4.53,7.28,8.29,9.27,1.76.62,1.91,2.54,1.85,4.11-.17,2.25.59,3.1,3.03,2.75,22.9-.45,114.47.22,150.36-.15,1.46-.02,2.64-1.17,2.7-2.63.18-4.64.72-13.86.72-13.86.29-.27,2.58-.08,6.21-.16,17.84-.04,50.74-.62,67.72-.2,1.35-.6,2.8.17,4.13.32.52.04.6.15.58.51.16,2.53,0,15.06.39,16.06,9.51.05,86.62.07,106.7.12h0c1.11,0,2.06,0,2.8,0,.33.02.59,0,.81,0v-.02c16.08-.04,36.63-.09,51.84-.12.64-.04.96.1,1.33-.07.07-.43,1.83-15.65,1.98-16.86,15.5-.45,63.5-.14,67.26-.28.56-.25,1.41-2.01,1.17-2.79ZM290.01,569.79c-7.18-5.07-7.3-15.32-1.43-21.12l.12-.09c.64-.37,1.15.49,1.04,1.02.04,3.17.09,6.26.14,9.94.06,4.91.16,9.86.12,10.25ZM447.61,465.53c.18-.05.42-.11.72-.18,5.61-1.33,30.64-8.1,32.17-8.16,3.93,8.95.32,19.6-8.61,24.52l-.18.1c-7.34,4.39-16.47,3.73-22.79-1.92-.5-.8.46-1.64.64-2.44,1.51-3.82.8-7.98-1.84-11.25-.18-.23-.32-.4-.38-.49-.1-.17.09-.1.27-.18ZM437.02,467.9l.18-.07c7.69-2.6,10.9,9.12,3.32,11.33-7.12,1.67-10.32-8.47-3.5-11.26ZM349.35,484.85c12.15-1.91,23.82,2.48,33.97,8.99,11.46,7.09,20.53,16.84,23.57,30.92,1.42,6.51,4.49,20.84,5.26,24.35.2.57-.12.54-.63.71-2.86.76-5.21,1.81-7.71,3.38-.78.38-1.26-.32-1.95-.71-3.01-1.28-24.14-5.01-40.38-8.54-6.82-1.4-11.77-2.41-11.79-2.42h0c.26-.61,9.46-40.55,9.64-41.02-2.27-1-9.19-2.81-10.13-3.58.58-3.63.88-7.25-.46-11.01-.16-.58,0-.95.62-1.06ZM326.81,479.6l.18-.07c14.69-5.27,24.25,15.43,11.3,24.04-5.16,3.59-12.58,2.09-16.48-2.66-5.7-6.37-3.01-18.32,5-21.32ZM312.98,492.88c.03-.05.08.28.18.92,2.77,17.52,22.94,23.55,33.56,9.07l.15-.08c1.77-.24,3.63.8,5.78,1.42.64.16-.06,1.07-.28,2.6-1.58,6.69-7.93,33.82-7.93,33.61-11.35-2.32-40.24-8.37-45.42-9.43-.27-.08-.47-.03-.46-.16.46-1.2,13.8-36.38,14.41-37.96ZM384.36,564.82l-.1.15c-2.32,3.44-2.48,7.66-.94,11.71-.38.24-4.27,0-10.19.09-22.99-.13-76.72.36-77.25-.09-.32-8.63-.88-25.74-1.22-35.12-.12-3.55-.22-5.78-.19-5.72.08,0,.13.02.25.04,4.58.94,70.47,14.45,71.33,14.63.53.1,1.17.26,2.59.55,6.91,1.48,25.68,5.48,27.35,5.84.64.22.21,1.47-.05,1.84-.71.88-1.63.74-2.89,1-3.13.24-6.96,2.14-8.7,5.06ZM387.74,571.77v-.16c0-8.05,11.23-8.21,11.51-.27.16,7.58-10.94,8.43-11.51.44ZM437.81,575.77c-.16.84.13,1.07-.67,1-5.16,0-10.17.02-16.14.02-8.17.01-16.44.02-17.29.03-.05,0-.05-.06-.02-.22,1.57-5.02.93-9.56-2.4-13.77v-.16c11.79-15.88,37.99-7.58,36.52,13.1ZM442.4,559.15c0,.07-.1.45-.59.74-.27.16-.62.21-1.01.19-1.26-.09-2.43-.72-3.16-1.72-1.85-2.33-4.14-4.34-6.73-5.88-3.56-2.13-7.68-3.41-12.02-3.57-.64-.01-1.24-.25-1.38-.94-.91-4.04-2.32-8.02-2.63-12.1,3.25-12.13,13.82-55.05,14.48-55.77l.09.08c4.67,4.43,9.08,5.75,15.1,3.43,1.57.93,3.73,2.62,5.2,3.7-.13,1.33-7.17,70.05-7.35,71.83ZM593.12,464.69l-.13-.02c-13.12-1.93-31.44-3.14-38.07-16.43-1.54-9.38,4.5-8.71,11.84-10.79,5.46-1.06,9.47-5.81,9.91-11.38.95-8.33,4.61-16.08,10.43-22.03,18.5-19.29,52.24-12.23,61.65,12.62,4.44,10.81,1.44,36.02-4.67,48.03-20.08,10.58-41.55,10.47-47.41,10.2.89-2.85,1.54-4.88,1.67-5.14,3-5.23-1.4-4.71-5.21-5.06ZM561.74,576.75c-9.24.03-21.09.05-29.93.07-.35-3.61-1.02-8.09.13-11.7,3.69-10.49,19.4-18.52,30.14-16.76l.08.02c.3,8.56.06,18.63.18,27.47,0,.13,0,.24,0,.34-.02.76.17.5-.6.55ZM685.43,575.6c-.04.45-.08.78-.15,1.11-.07.17-.23.05-.54.08-7.97-.07-32.63.16-47.95.03-.4-.01-1.49-.02-3.12-.03-.16,0-.33,0-.48,0h0c-14.04-.08-62.62-.09-65-.15-.77-.02-.44-.13-.51-.52.12-4.59-.31-29.37.1-30.12,2.04-.26,7.33-1.66,10.86-2.62h0c6.5-.85,73-7.78,74.35-7.96,1.39-.12,2.7-1.77,2.38-3.18l-.03-.18c-.15-1.17-1.69-2.23-2.98-2.02-1.17.15-54.18,5.6-69.95,7.35,1.64-18.33,5.94-34.26,5.95-34.18,8.09-.44,15.7-2.59,23.21-5.48,1.03-.47,4.11-1.99,5.81-3.06,6.83-4.33,12.83-9.43,18.16-15.43,4.7-6.07,11.97-9.96,19.67-8.98,3.04,1.15,5.17,3.52,7.69,5.2.85.51,1.32,1.43,1.94,2.16,5.5,5.3,9.27,12.09,12.82,18.63,10.19,26.08,10.66,51.35,7.78,79.36Z"/>
    <path class="cls-1" d="M509.42,580.06h-.21c-1.2.08-2.87.18-4.08.02-2.26-.28-1.87-1.2-4.08-1.62-2.09-.35-4.33-.18-6.46-.07-8.88.48-17.64.02-26.58.14-6.71.48-4.63,9.62-3.77,14.04.75,3.33,1.32,6.6,2.91,9.66.08.15.15.31.22.47.66,1.67,1.13,3.46,2.4,4.94.68.79,1.25,1.87,1.12,2.92-.19,1.31-1.93,1.57-2.59,2.51-1.24,1.33-1.1,3.61.46,4.67.74.54,1.62.75,2.28.77,1.66,0,23.15-.08,24.45-.09.67-.03,1.79-.27,2.47-.65,2.06-.86,1.95-3.79.36-5.02-.96-1.01-2.91-1.24-1.37-2.82.58-.7,1.32-1.19,2.15-1.49,2.14-.78,5.07-.7,9.49-3.91,1.2-.87,2.1-1.64,3.13-2.61,5.92-4.75,9.29-14.33,3.48-19.36-1.55-1.52-3.35-2.7-5.76-2.51ZM497.82,585.47c-.89,8.31-6.41,32.1-18.55,24.25l-.16-.13c-6.74-6-8.58-15.72-9.48-24.32-.14-1.15.18-.6,1.45-.72,6.15-.02,22.88-.01,26.56-.02.45-.12.18.59.18.94ZM509.58,595.55c-1.16,1.51-10.22,8.5-9.31,3.72l.04-.17c.76-2.6,1.29-5.19,1.88-7.83.39-1.73,1.48-3.27,3.06-4.05,5.62-2.79,9.1,2.24,4.32,8.34Z"/>
    <path class="cls-1" d="M382.11,429.62l.19-.03c10.58-2.25,8.63-18.36-2.43-17.51-12.2,1.36-9.8,19.46,2.24,17.54ZM379.64,418.03l.15-.04c4.22-.91,5.21,5.47,1.16,6.11-3.58.5-4.71-5.04-1.32-6.07Z"/>
    <path class="cls-1" d="M599.63,456.68c1.04-1.71.13-4.24-1.58-5.27-5.25-3.54-9.79-7.57-14.22-12.14-.92-.91-2.14-1.59-3.39-1.76-2.35-.44-4.26,1.19-6.03,2.56-6.3,4.53-10.56,3.07-14.21,5.02-.77.65-.35,1.83.27,2.5,10.75,10.01,36.61,12.29,39.1,9.18l.05-.08Z"/>
    <path class="cls-1" d="M601.07,426.96l.18.06c8.16,2.49,9.55,5.7,12.48,13.42.24.6.65,1.7,1.2,1.57,1.39-.36,2.69-7.92,6.25-11.31,1.99-1.96,5.01-2.82,7.45-3.81,3.04-1.29-.92-2.31-2.34-2.98-2.05-.86-4.25-1.95-5.76-3.67-3.38-3.84-4.22-10.38-5.82-10.07-1.43.02-2.91,9.1-7.5,11.75-1.68,1.19-3.86,1.96-5.67,2.67-1.67.58-2.41,1.65-.47,2.35Z"/>
  </g>
</svg>