<?xml version="1.0" encoding="UTF-8"?>
<svg id="Layer_1" data-name="Layer 1" xmlns="http://www.w3.org/2000/svg" xmlns:xlink="http://www.w3.org/1999/xlink" viewBox="0 0 1000 1000">
  <defs>
    <style>
      .cls-1 {
        fill: #160078;
      }

      .cls-2 {
        fill: url(#linear-gradient);
      }
    </style>
    <linearGradient id="linear-gradient" x1="-6.9" y1="500.06" x2="1000.9" y2="500.06" gradientUnits="userSpaceOnUse">
      <stop offset="0" stop-color="#7226ff"/>
      <stop offset="1" stop-color="#87f5f5"/>
    </linearGradient>
  </defs>
  <rect class="cls-2" x="-6.9" y="-3.84" width="1007.8" height="1007.8"/>
  <g>
    <path class="cls-1" d="M438.21,466.26c-15.36-6.89-31.2-11.51-48.43-10.7.08-.41.07-.52.12-.56.81-.6,1.64-1.17,2.43-1.8,20.1-16.07,28.64-36.89,23.51-62.14-7.47-36.76-44.23-58.75-80.46-48.96-23.06,6.23-40.93,26.89-43.62,50.42-1.31,11.43-5.42,16.27-16.52,19.29-3.85,1.05-7.79,1.79-11.61,2.93-5.19,1.55-7.6,5.92-6.78,11.17,1.16,7.43,6.01,12.08,11.76,16.03,9.31,6.39,20.11,8.57,30.96,10.51,3.79.68,7.6,1.16,11.94,1.82-3.75,2.17-6.77,4.33-9.53,6.81-17.04,15.31-27.25,33.93-27.84,57.29-.08,3.06.75,3.92,3.85,3.91,38.79-.11,77.59-.14,116.38-.04,16.06.04,28.23-6.77,36.81-20.15,6.49-10.12,8.86-21.37,8.63-33.29-.03-1.41-.28-1.96-1.59-2.54ZM325.95,444.78c-1.41.24-2.79.39-4.2.33-16.71-.55-32.79-3.78-47.79-11.41-2.77-1.41-5.56-2.9-7.49-5.46-2.05-2.71-1.49-4.4,1.77-5.15,2.83-.66,5.72-1.04,8.55-1.67,5.26-1.17,9.91-3.56,14.19-6.85,5.05-3.87,9.12-3.56,13.62,1.05,6.78,6.94,13.82,13.53,22.11,18.67,1.3.8,2.26,2,2.93,3.38,1.78,3.65.28,6.43-3.68,7.12ZM377.94,394.45l-2.8.77c-.29.11-.59.2-.9.28,0,0,0,0-.01,0-3.47,1.31-7.48,3.31-10.67,6.23-2.32,2.14-5.97,11.57-7.77,16.5-.37,1.02-1.8,1.02-2.19,0-1.36-3.6-3.75-9.63-5.85-13.44,0,0,0,0,0,0-.78-1.23-1.6-2.29-2.42-3.05-.54-.5-.99-.96-1.38-1.4,0,0-.02-.02-.03-.02-2.79-2.12-5.96-3.67-8.79-4.75-.3-.1-.77-.25-1.07-.35l-2.8-.77c-1.15-.32-1.14-1.94,0-2.25l2.54-.69s0,0,.01,0c3.44-1.21,7.6-3.13,10.99-6,0,0,0,0,.01-.01.19-.2.39-.4.62-.61.32-.3.64-.64.95-1.01,0,0,0,0,0,0,2.32-3.25,5.47-11.19,7.11-15.53.38-1.01,1.8-1.02,2.18,0,1.85,4.91,5.65,14.41,7.98,16.56,3.51,3.23,8.04,5.32,11.72,6.62,0,0,0,0,.01,0l2.53.69c1.15.31,1.15,1.94,0,2.25Z"/>
    <path class="cls-1" d="M724.07,502.78c-.11,0-10.45.87-23.57-5.28,7.54-14.58,8.73-35.47-1.61-44.39-3.32-2.86-8.34-2.49-11.21.82-2.86,3.32-2.49,8.34.82,11.21,2.8,2.42,3.11,14.22-1.48,23.86-3.26-2.64-6.39-5.65-9.31-8.96-6.98-7.9-13.08-16.47-17.71-24.84,3.5-2.86,6.94-5.7,10.4-8.73,14.73-12.88,13.69-27.55,6.12-36.37-7.39-8.63-22.06-12.33-32.87-3.25-5,4.19-7.94,10.38-8.5,17.9-.55,7.44,1.22,16.46,5.13,26.13-15.74,13.45-30.95,29.83-17.19,53.81,5.69,9.92,16.21,15.89,29.63,16.81,1.15.08,2.3.12,3.46.12h.06c12.32,0,24.95-4.29,33.97-11.52,18.35,9.74,33.62,8.67,35.34,8.5,4.33-.41,7.53-4.28,7.14-8.62-.39-4.31-4.24-7.55-8.61-7.21ZM659.94,434.52c-2.21,1.93-4.44,3.81-6.66,5.64-1.77-5.42-2.56-10.31-2.27-14.22.24-3.2,1.2-5.52,2.86-6.91,1.21-1.01,2.69-1.55,4.27-1.55,2.32,0,4.74,1.14,6.31,2.97,4.47,5.22-1.66,11.58-4.51,14.07ZM676.06,500.57c-6.53,3.71-14.71,5.6-22.26,5.08-4.6-.32-12.93-1.89-16.92-8.86-6.9-12.02-2.13-19.79,10.71-31.18,4.95,8.48,11.07,16.87,18.21,24.96,3.23,3.66,6.68,7.02,10.27,10.01Z"/>
    <path class="cls-1" d="M531.15,412.16c-3.74-3.06-7.97-5.4-12.71-7.11-9.52-3.42-20.96-3.42-30.64,0-4.8,1.71-9,4.05-12.51,6.95-2.96,2.44-5.42,5.27-7.34,8.38-2.65,4.31-4.05,9.57-4.05,15.28v82.07c0,1.92,1.56,3.48,3.45,3.48h28.93c1.92,0,3.48-1.56,3.48-3.48v-13.26c0-1.89,1.53-3.45,3.43-3.45s3.43,1.56,3.43,3.45v13.26c0,1.92,1.56,3.48,3.48,3.48h28.93c1.89,0,3.45-1.56,3.45-3.48v-80.62c0-9.94-4.13-19.02-11.31-24.96ZM506.6,479.7c0,1.89-1.53,3.42-3.43,3.42s-3.43-1.53-3.43-3.42v-57.83c0-4.26,2.39-4.72,3.43-4.72s3.43.47,3.43,4.72v57.83Z"/>
    <path class="cls-1" d="M580.44,404.2h-19.98c-4.36,0-7.94,3.55-7.94,7.94v101.14c0,4.36,3.58,7.94,7.94,7.94h19.98c4.38,0,7.94-3.58,7.94-7.94v-101.14c0-4.38-3.55-7.94-7.94-7.94Z"/>
    <path class="cls-1" d="M331.28,541.64h-66.94c-4.38,0-7.94,3.55-7.94,7.94v10.56c0,4.38,3.55,7.94,7.94,7.94h10.64c2.72,0,4.9,2.21,4.9,4.9v77.71c0,4.38,3.58,7.97,7.97,7.97h19.93c4.41,0,7.97-3.58,7.97-7.97v-77.71c0-2.7,2.21-4.9,4.9-4.9h10.64c4.38,0,7.97-3.55,7.97-7.94v-10.56c0-4.38-3.58-7.94-7.97-7.94Z"/>
    <path class="cls-1" d="M418.98,541.64h-22.34c-3.71,0-6.75,3.01-6.75,6.75v42.34c0,2.44-1.3,3.87-3.42,3.87s-3.45-1.43-3.45-3.87v-42.34c0-3.74-3.04-6.75-6.75-6.75h-22.34c-3.74,0-6.75,3.01-6.75,6.75v103.5c0,3.74,3.01,6.77,6.75,6.77h22.34c3.71,0,6.75-3.04,6.75-6.77v-42.34c0-2.41,1.3-3.87,3.45-3.87s3.42,1.45,3.42,3.87v42.34c0,3.74,3.04,6.77,6.75,6.77h22.34c3.74,0,6.77-3.04,6.77-6.77v-103.5c0-3.74-3.04-6.75-6.77-6.75Z"/>
    <path class="cls-1" d="M467.73,541.64h-25.84c-2.75,0-5.01,2.23-5.01,5.01v106.98c0,2.78,2.26,5.03,5.01,5.03h25.84c2.75,0,5.01-2.26,5.01-5.03v-106.98c0-2.78-2.26-5.01-5.01-5.01Z"/>
    <path class="cls-1" d="M560.23,541.64h-31.45c-1.22,0-2.21.99-2.21,2.18v47.82c0,.86-.62,1.56-1.48,1.66-.86.13-1.63-.44-1.84-1.27l-11.42-48.7c-.23-.99-1.12-1.69-2.13-1.69h-23.64c-1.22,0-2.21.99-2.21,2.18v112.63c0,1.22.99,2.21,2.21,2.21h31.45c1.22,0,2.21-.99,2.21-2.21v-47.79c0-.88.62-1.58,1.48-1.69h.21c.78,0,1.45.52,1.63,1.3l11.42,48.68c.23,1.01,1.12,1.71,2.15,1.71h23.61c1.22,0,2.21-.99,2.21-2.21v-112.63c0-1.19-.99-2.18-2.21-2.18Z"/>
    <path class="cls-1" d="M648.29,602.46h-30.25c-1.56,0-2.8,1.27-2.8,2.8v40.16c0,2.41-1.3,3.87-3.45,3.87s-3.42-1.45-3.42-3.87v-90.22c0-3.81,2.41-4.2,3.42-4.2s3.45.39,3.45,4.2v18.97c0,1.53,1.25,2.8,2.8,2.8h30.25c1.53,0,2.8-1.27,2.8-2.8,0-8.33-2.8-15.83-7.84-21.3-1.12-1.19-2.36-2.36-3.66-3.42-3.58-2.91-7.81-5.24-12.53-6.95-4.77-1.71-9.89-2.57-15.28-2.57s-10.53.86-15.36,2.57c-4.8,1.71-9.03,4.05-12.53,6.95-3.61,2.98-6.46,6.54-8.54,10.51-1.89,3.63-2.85,7.94-2.85,12.79v55.76c0,4.31,1.04,8.43,3.06,12.19,2.05,3.81,4.85,7.24,8.33,10.12,3.5,2.91,7.71,5.24,12.53,6.95,4.83,1.71,9.99,2.57,15.36,2.57,4.28,0,8.41-.54,12.25-1.63,3.89-1.12,7.45-2.62,10.61-4.49.21-.13,16.45-8.95,16.45-21.92v-27.04c0-1.53-1.27-2.8-2.8-2.8Z"/>
    <path class="cls-1" d="M705.61,583.46h28.13c2.13,0,3.87-1.74,3.87-3.87v-5.06c0-9.91-4.13-19.02-11.31-24.93-3.76-3.06-7.99-5.4-12.71-7.11-9.55-3.42-21.04-3.4-30.67-.08-4.8,1.63-9,3.94-12.51,6.85-3.48,2.91-6.3,6.28-8.33,10.04-2.02,3.74-3.06,7.76-3.06,11.96v14.17c0,3.76.96,6.72,2.88,8.8,1.97,2.18,4.49,3.87,7.42,5.03,3.04,1.22,6.38,2.13,9.96,2.67,3.71.57,7.14,1.14,10.3,1.71,3.22.6,5.99,1.4,8.2,2.39,3.27,1.5,3.97,3.94,3.97,5.71v32.82c0,4.26-2.41,4.72-3.45,4.72s-3.43-.47-3.43-4.72v-27.32c0-2.13-1.74-3.84-3.87-3.84h-28.13c-2.13,0-3.87,1.71-3.87,3.84v11.26c0,4.31,1.04,8.43,3.06,12.19,2.05,3.81,4.85,7.24,8.33,10.12,3.5,2.91,7.71,5.24,12.53,6.95,9.65,3.42,21.15,3.4,30.64.08,4.75-1.63,8.98-3.94,12.53-6.85,2.96-2.44,5.45-5.19,7.37-8.23,2.7-4.26,4.13-9.6,4.13-15.41v-15.78c0-4.8-.99-8.43-2.93-10.79-1.97-2.44-4.44-4.23-7.34-5.34-3.01-1.14-6.3-1.79-9.86-1.97-3.74-.16-7.21-.39-10.3-.67-1.04-.1-2-.21-2.93-.36-5.35-.86-9.37-5.66-9.37-11.18v-25.56c0-4.26,2.41-4.7,3.43-4.7s3.45.44,3.45,4.7v23.9c0,2.13,1.71,3.87,3.87,3.87Z"/>
  </g>
</svg>