<?xml version="1.0" encoding="UTF-8"?>
<svg id="Layer_1" data-name="Layer 1" xmlns="http://www.w3.org/2000/svg" xmlns:xlink="http://www.w3.org/1999/xlink" viewBox="0 0 1000 1000">
  <defs>
    <style>
      .cls-1 {
        fill: url(#New_Pattern);
      }

      .cls-2 {
        fill: none;
      }

      .cls-3 {
        fill: #160078;
      }
    </style>
    <pattern id="New_Pattern" data-name="New Pattern" x="0" y="0" width="747" height="732" patternTransform="translate(-7690 -40)" patternUnits="userSpaceOnUse" viewBox="0 0 747 732">
      <g>
        <rect class="cls-2" width="747" height="732"/>
        <g>
          <path class="cls-3" d="M647.72,778.71c.38,4.17-2.7,7.89-6.86,8.29-1.65.16-16.34,1.19-33.99-8.18-8.68,6.95-20.82,11.08-32.67,11.08h-.05c-1.11,0-2.22-.04-3.32-.11-12.9-.88-23.02-6.62-28.49-16.17-13.23-23.07,1.4-38.82,16.54-51.75-3.76-9.3-5.46-17.97-4.93-25.13.54-7.23,3.37-13.19,8.17-17.22,10.4-8.73,24.5-5.17,31.61,3.13,7.27,8.49,8.27,22.6-5.89,34.98-3.33,2.91-6.64,5.64-10.01,8.39,4.45,8.04,10.32,16.28,17.03,23.88,2.81,3.19,5.82,6.08,8.95,8.62,4.41-9.28,4.12-20.62,1.42-22.95-3.19-2.76-3.54-7.59-.79-10.78,2.76-3.19,7.59-3.55,10.78-.79,9.94,8.58,8.8,28.67,1.54,42.69,12.62,5.92,22.57,5.08,22.67,5.08,4.2-.34,7.91,2.78,8.28,6.93ZM582.11,692.6c-1.51-1.76-3.84-2.86-6.07-2.86-1.52,0-2.94.52-4.11,1.49-1.6,1.34-2.52,3.58-2.75,6.65-.28,3.76.47,8.46,2.18,13.67,2.13-1.76,4.28-3.57,6.41-5.43,2.74-2.39,8.64-8.51,4.34-13.53ZM583.4,760.03c-6.87-7.78-12.75-15.85-17.51-24-12.34,10.95-16.93,18.43-10.3,29.99,3.85,6.71,11.85,8.22,16.28,8.52,7.26.51,15.13-1.31,21.41-4.88-3.45-2.88-6.77-6.11-9.88-9.63Z"/>
          <path class="cls-3" d="M464.79,709.03v77.53c0,1.85-1.5,3.34-3.32,3.34h-27.82c-1.85,0-3.34-1.5-3.34-3.34v-12.75c0-1.82-1.47-3.32-3.29-3.32s-3.29,1.5-3.29,3.32v12.75c0,1.85-1.5,3.34-3.34,3.34h-27.82c-1.82,0-3.32-1.5-3.32-3.34v-78.92c0-5.49,1.35-10.55,3.89-14.7,1.85-2.99,4.22-5.71,7.06-8.06,3.37-2.79,7.41-5.04,12.03-6.69,9.31-3.29,20.31-3.29,29.47,0,4.57,1.65,8.63,3.89,12.23,6.84,6.91,5.71,10.88,14.45,10.88,24ZM430.31,694.36c0-4.09-2.3-4.54-3.29-4.54s-3.29.45-3.29,4.54v55.62c0,1.82,1.47,3.29,3.29,3.29s3.29-1.47,3.29-3.29v-55.62Z"/>
          <path class="cls-3" d="M508.96,685v97.26c0,4.19-3.42,7.64-7.63,7.64h-19.21c-4.19,0-7.64-3.44-7.64-7.64v-97.26c0-4.22,3.44-7.64,7.64-7.64h19.21c4.22,0,7.63,3.42,7.63,7.64Z"/>
          <path class="cls-3" d="M721.67,685v10.16c0,4.22-3.44,7.64-7.66,7.64h-10.23c-2.6,0-4.72,2.12-4.72,4.72v74.73c0,4.22-3.42,7.66-7.66,7.66h-19.16c-4.22,0-7.66-3.44-7.66-7.66v-74.73c0-2.6-2.1-4.72-4.72-4.72h-10.23c-4.22,0-7.64-3.42-7.64-7.64v-10.16c0-4.22,3.42-7.64,7.64-7.64h64.38c4.22,0,7.66,3.42,7.66,7.64Z"/>
          <path class="cls-3" d="M804.86,683.85v99.53c0,3.59-2.92,6.51-6.51,6.51h-21.48c-3.57,0-6.49-2.92-6.49-6.51v-40.72c0-2.32-1.25-3.72-3.29-3.72s-3.32,1.4-3.32,3.72v40.72c0,3.59-2.92,6.51-6.49,6.51h-21.48c-3.59,0-6.49-2.92-6.49-6.51v-99.53c0-3.59,2.89-6.49,6.49-6.49h21.48c3.57,0,6.49,2.89,6.49,6.49v40.72c0,2.35,1.25,3.72,3.32,3.72s3.29-1.37,3.29-3.72v-40.72c0-3.59,2.92-6.49,6.49-6.49h21.48c3.59,0,6.51,2.89,6.51,6.49Z"/>
        </g>
        <g>
          <path class="cls-3" d="M57.86,683.85v99.53c0,3.59-2.92,6.51-6.51,6.51h-21.48c-3.57,0-6.49-2.92-6.49-6.51v-40.72c0-2.32-1.25-3.72-3.29-3.72s-3.32,1.4-3.32,3.72v40.72c0,3.59-2.92,6.51-6.49,6.51H-11.2c-3.59,0-6.49-2.92-6.49-6.51v-99.53c0-3.59,2.89-6.49,6.49-6.49H10.28c3.57,0,6.49,2.89,6.49,6.49v40.72c0,2.35,1.25,3.72,3.32,3.72s3.29-1.37,3.29-3.72v-40.72c0-3.59,2.92-6.49,6.49-6.49h21.48c3.59,0,6.51,2.89,6.51,6.49Z"/>
          <path class="cls-3" d="M103.05,682.18v102.88c0,2.67-2.17,4.84-4.82,4.84h-24.85c-2.64,0-4.82-2.17-4.82-4.84v-102.88c0-2.67,2.17-4.82,4.82-4.82h24.85c2.65,0,4.82,2.15,4.82,4.82Z"/>
          <path class="cls-3" d="M189.31,679.46v108.32c0,1.17-.95,2.12-2.12,2.12h-22.71c-1,0-1.85-.67-2.07-1.65l-10.98-46.81c-.17-.75-.82-1.25-1.57-1.25h-.2c-.82.1-1.42.77-1.42,1.62v45.96c0,1.17-.95,2.12-2.12,2.12h-30.24c-1.17,0-2.12-.95-2.12-2.12v-108.32c0-1.15.95-2.1,2.12-2.1h22.73c.97,0,1.82.67,2.05,1.62l10.98,46.84c.2.8.95,1.35,1.77,1.22.82-.1,1.42-.77,1.42-1.6v-45.99c0-1.15.95-2.1,2.12-2.1h30.24c1.17,0,2.12.95,2.12,2.1Z"/>
          <path class="cls-3" d="M274.57,736.93v26c0,12.48-15.62,20.96-15.82,21.08-3.04,1.8-6.46,3.24-10.21,4.32-3.69,1.05-7.66,1.57-11.78,1.57-5.16,0-10.13-.82-14.77-2.47-4.64-1.65-8.68-3.89-12.05-6.69-3.34-2.77-6.04-6.06-8.01-9.73-1.95-3.62-2.94-7.59-2.94-11.73v-53.62c0-4.67.92-8.81,2.74-12.3,2-3.82,4.74-7.24,8.21-10.11,3.37-2.79,7.44-5.04,12.05-6.69,4.64-1.65,9.61-2.47,14.77-2.47s10.11.82,14.7,2.47c4.54,1.65,8.61,3.89,12.05,6.69,1.25,1.02,2.45,2.15,3.52,3.29,4.84,5.26,7.54,12.48,7.54,20.49,0,1.47-1.22,2.69-2.7,2.69h-29.09c-1.5,0-2.7-1.22-2.7-2.69v-18.24c0-3.67-2.32-4.04-3.32-4.04s-3.29.37-3.29,4.04v86.76c0,2.32,1.25,3.72,3.29,3.72s3.32-1.4,3.32-3.72v-38.63c0-1.47,1.2-2.69,2.7-2.69h29.09c1.47,0,2.7,1.22,2.7,2.69Z"/>
          <path class="cls-3" d="M323.28,712.25v-22.98c0-4.09-2.32-4.52-3.32-4.52s-3.29.42-3.29,4.52v24.58c0,5.31,3.87,9.93,9.01,10.75.9.15,1.82.25,2.82.35,2.97.27,6.31.5,9.91.65,3.42.17,6.59.8,9.48,1.9,2.79,1.07,5.17,2.79,7.06,5.14,1.87,2.27,2.82,5.76,2.82,10.38v15.17c0,5.59-1.37,10.73-3.97,14.82-1.85,2.92-4.24,5.56-7.09,7.91-3.42,2.79-7.49,5.02-12.05,6.59-9.13,3.19-20.19,3.22-29.47-.07-4.64-1.65-8.68-3.89-12.05-6.69-3.34-2.77-6.04-6.06-8.01-9.73-1.95-3.62-2.94-7.59-2.94-11.73v-10.83c0-2.05,1.67-3.69,3.72-3.69h27.05c2.05,0,3.72,1.65,3.72,3.69v26.27c0,4.09,2.32,4.54,3.29,4.54s3.32-.45,3.32-4.54v-31.56c0-1.7-.67-4.04-3.82-5.49-2.12-.95-4.79-1.72-7.89-2.3-3.04-.55-6.34-1.1-9.91-1.65-3.44-.52-6.66-1.4-9.58-2.57-2.82-1.12-5.24-2.74-7.14-4.84-1.85-2-2.77-4.84-2.77-8.46v-13.62c0-4.04,1-7.91,2.94-11.5,1.95-3.62,4.67-6.86,8.01-9.66,3.37-2.79,7.41-5.02,12.03-6.59,9.26-3.19,20.31-3.22,29.49.07,4.54,1.65,8.61,3.89,12.23,6.84,6.91,5.69,10.88,14.45,10.88,23.98v4.87c0,2.05-1.67,3.72-3.72,3.72h-27.05c-2.07,0-3.72-1.67-3.72-3.72Z"/>
        </g>
        <g>
          <path class="cls-3" d="M274.22,656.71c.38,4.17-2.7,7.89-6.86,8.29-1.65.16-16.34,1.19-33.99-8.18-8.68,6.95-20.82,11.08-32.67,11.08h-.05c-1.11,0-2.22-.04-3.32-.11-12.9-.88-23.02-6.62-28.49-16.17-13.23-23.07,1.4-38.82,16.54-51.75-3.76-9.3-5.46-17.97-4.93-25.13.54-7.23,3.37-13.19,8.17-17.22,10.4-8.73,24.5-5.17,31.61,3.13,7.27,8.49,8.27,22.6-5.89,34.98-3.33,2.91-6.64,5.64-10.01,8.39,4.45,8.04,10.32,16.28,17.03,23.88,2.81,3.19,5.82,6.08,8.95,8.62,4.41-9.28,4.12-20.62,1.42-22.95-3.19-2.76-3.54-7.59-.79-10.78,2.76-3.19,7.59-3.55,10.78-.79,9.94,8.58,8.8,28.67,1.54,42.69,12.62,5.92,22.57,5.08,22.67,5.08,4.2-.34,7.91,2.78,8.28,6.93ZM208.61,570.6c-1.51-1.76-3.84-2.86-6.07-2.86-1.52,0-2.94.52-4.11,1.49-1.6,1.34-2.52,3.58-2.75,6.65-.28,3.76.47,8.46,2.18,13.67,2.13-1.76,4.28-3.57,6.41-5.43,2.74-2.39,8.64-8.51,4.34-13.53ZM209.9,638.03c-6.87-7.78-12.75-15.85-17.51-24-12.34,10.95-16.93,18.43-10.3,29.99,3.85,6.71,11.85,8.22,16.28,8.52,7.26.51,15.13-1.31,21.41-4.88-3.45-2.88-6.77-6.11-9.88-9.63Z"/>
          <path class="cls-3" d="M91.29,587.03v77.53c0,1.85-1.5,3.34-3.32,3.34h-27.82c-1.85,0-3.34-1.5-3.34-3.34v-12.75c0-1.82-1.47-3.32-3.29-3.32s-3.29,1.5-3.29,3.32v12.75c0,1.85-1.5,3.34-3.34,3.34h-27.82c-1.82,0-3.32-1.5-3.32-3.34v-78.92c0-5.49,1.35-10.55,3.89-14.7,1.85-2.99,4.22-5.71,7.06-8.06,3.37-2.79,7.41-5.04,12.03-6.69,9.31-3.29,20.31-3.29,29.47,0,4.57,1.65,8.63,3.89,12.23,6.84,6.91,5.71,10.88,14.45,10.88,24ZM56.81,572.36c0-4.09-2.3-4.54-3.29-4.54s-3.29.45-3.29,4.54v55.62c0,1.82,1.47,3.29,3.29,3.29s3.29-1.47,3.29-3.29v-55.62Z"/>
          <path class="cls-3" d="M135.46,563v97.26c0,4.19-3.42,7.64-7.63,7.64h-19.21c-4.19,0-7.64-3.44-7.64-7.64v-97.26c0-4.22,3.44-7.64,7.64-7.64h19.21c4.22,0,7.63,3.42,7.63,7.64Z"/>
          <path class="cls-3" d="M348.17,563v10.16c0,4.22-3.44,7.64-7.66,7.64h-10.23c-2.6,0-4.72,2.12-4.72,4.72v74.73c0,4.22-3.42,7.66-7.66,7.66h-19.16c-4.22,0-7.66-3.44-7.66-7.66v-74.73c0-2.6-2.1-4.72-4.72-4.72h-10.23c-4.22,0-7.64-3.42-7.64-7.64v-10.16c0-4.22,3.42-7.64,7.64-7.64h64.38c4.22,0,7.66,3.42,7.66,7.64Z"/>
          <path class="cls-3" d="M431.36,561.85v99.53c0,3.59-2.92,6.51-6.51,6.51h-21.48c-3.57,0-6.49-2.92-6.49-6.51v-40.72c0-2.32-1.25-3.72-3.29-3.72s-3.32,1.4-3.32,3.72v40.72c0,3.59-2.92,6.51-6.49,6.51h-21.48c-3.59,0-6.49-2.92-6.49-6.51v-99.53c0-3.59,2.89-6.49,6.49-6.49h21.48c3.57,0,6.49,2.89,6.49,6.49v40.72c0,2.35,1.25,3.72,3.32,3.72s3.29-1.37,3.29-3.72v-40.72c0-3.59,2.92-6.49,6.49-6.49h21.48c3.59,0,6.51,2.89,6.51,6.49Z"/>
          <path class="cls-3" d="M476.55,560.18v102.88c0,2.67-2.17,4.84-4.82,4.84h-24.85c-2.64,0-4.82-2.17-4.82-4.84v-102.88c0-2.67,2.17-4.82,4.82-4.82h24.85c2.65,0,4.82,2.15,4.82,4.82Z"/>
          <path class="cls-3" d="M562.81,557.46v108.32c0,1.17-.95,2.12-2.12,2.12h-22.71c-1,0-1.85-.67-2.07-1.65l-10.98-46.81c-.17-.75-.82-1.25-1.57-1.25h-.2c-.82.1-1.42.77-1.42,1.62v45.96c0,1.17-.95,2.12-2.12,2.12h-30.24c-1.17,0-2.12-.95-2.12-2.12v-108.32c0-1.15.95-2.1,2.12-2.1h22.73c.97,0,1.82.67,2.05,1.62l10.98,46.84c.2.8.95,1.35,1.77,1.22.82-.1,1.42-.77,1.42-1.6v-45.99c0-1.15.95-2.1,2.12-2.1h30.24c1.17,0,2.12.95,2.12,2.1Z"/>
          <path class="cls-3" d="M648.07,614.93v26c0,12.48-15.62,20.96-15.82,21.08-3.04,1.8-6.46,3.24-10.21,4.32-3.69,1.05-7.66,1.57-11.78,1.57-5.16,0-10.13-.82-14.77-2.47-4.64-1.65-8.68-3.89-12.05-6.69-3.34-2.77-6.04-6.06-8.01-9.73-1.95-3.62-2.94-7.59-2.94-11.73v-53.62c0-4.67.92-8.81,2.74-12.3,2-3.82,4.74-7.24,8.21-10.11,3.37-2.79,7.44-5.04,12.05-6.69,4.64-1.65,9.61-2.47,14.77-2.47s10.11.82,14.7,2.47c4.54,1.65,8.61,3.89,12.05,6.69,1.25,1.02,2.45,2.15,3.52,3.29,4.84,5.26,7.54,12.48,7.54,20.49,0,1.47-1.22,2.69-2.7,2.69h-29.09c-1.5,0-2.7-1.22-2.7-2.69v-18.24c0-3.67-2.32-4.04-3.32-4.04s-3.29.37-3.29,4.04v86.76c0,2.32,1.25,3.72,3.29,3.72s3.32-1.4,3.32-3.72v-38.63c0-1.47,1.2-2.69,2.7-2.69h29.09c1.47,0,2.7,1.22,2.7,2.69Z"/>
          <path class="cls-3" d="M696.78,590.25v-22.98c0-4.09-2.32-4.52-3.32-4.52s-3.29.42-3.29,4.52v24.58c0,5.31,3.87,9.93,9.01,10.75.9.15,1.82.25,2.82.35,2.97.27,6.31.5,9.91.65,3.42.17,6.59.8,9.48,1.9,2.79,1.07,5.17,2.79,7.06,5.14,1.87,2.27,2.82,5.76,2.82,10.38v15.17c0,5.59-1.37,10.73-3.97,14.82-1.85,2.92-4.24,5.56-7.09,7.91-3.42,2.79-7.49,5.02-12.05,6.59-9.13,3.19-20.19,3.22-29.47-.07-4.64-1.65-8.68-3.89-12.05-6.69-3.34-2.77-6.04-6.06-8.01-9.73-1.95-3.62-2.94-7.59-2.94-11.73v-10.83c0-2.05,1.67-3.69,3.72-3.69h27.05c2.05,0,3.72,1.65,3.72,3.69v26.27c0,4.09,2.32,4.54,3.29,4.54s3.32-.45,3.32-4.54v-31.56c0-1.7-.67-4.04-3.82-5.49-2.12-.95-4.79-1.72-7.89-2.3-3.04-.55-6.34-1.1-9.91-1.65-3.44-.52-6.66-1.4-9.58-2.57-2.82-1.12-5.24-2.74-7.14-4.84-1.85-2-2.77-4.84-2.77-8.46v-13.62c0-4.04,1-7.91,2.94-11.5,1.95-3.62,4.67-6.86,8.01-9.66,3.37-2.79,7.41-5.02,12.03-6.59,9.26-3.19,20.31-3.22,29.49.07,4.54,1.65,8.61,3.89,12.23,6.84,6.91,5.69,10.88,14.45,10.88,23.98v4.87c0,2.05-1.67,3.72-3.72,3.72h-27.05c-2.07,0-3.72-1.67-3.72-3.72Z"/>
        </g>
        <g>
          <path class="cls-3" d="M647.72,534.71c.38,4.17-2.7,7.89-6.86,8.29-1.65.16-16.34,1.19-33.99-8.18-8.68,6.95-20.82,11.08-32.67,11.08h-.05c-1.11,0-2.22-.04-3.32-.11-12.9-.88-23.02-6.62-28.49-16.17-13.23-23.07,1.4-38.82,16.54-51.75-3.76-9.3-5.46-17.97-4.93-25.13.54-7.23,3.37-13.19,8.17-17.22,10.4-8.73,24.5-5.17,31.61,3.13,7.27,8.49,8.27,22.6-5.89,34.98-3.33,2.91-6.64,5.64-10.01,8.39,4.45,8.04,10.32,16.28,17.03,23.88,2.81,3.19,5.82,6.08,8.95,8.62,4.41-9.28,4.12-20.62,1.42-22.95-3.19-2.76-3.54-7.59-.79-10.78,2.76-3.19,7.59-3.55,10.78-.79,9.94,8.58,8.8,28.67,1.54,42.69,12.62,5.92,22.57,5.08,22.67,5.08,4.2-.34,7.91,2.78,8.28,6.93ZM582.11,448.6c-1.51-1.76-3.84-2.86-6.07-2.86-1.52,0-2.94.52-4.11,1.49-1.6,1.34-2.52,3.58-2.75,6.65-.28,3.76.47,8.46,2.18,13.67,2.13-1.76,4.28-3.57,6.41-5.43,2.74-2.39,8.64-8.51,4.34-13.53ZM583.4,516.03c-6.87-7.78-12.75-15.85-17.51-24-12.34,10.95-16.93,18.43-10.3,29.99,3.85,6.71,11.85,8.22,16.28,8.52,7.26.51,15.13-1.31,21.41-4.88-3.45-2.88-6.77-6.11-9.88-9.63Z"/>
          <path class="cls-3" d="M464.79,465.03v77.53c0,1.85-1.5,3.34-3.32,3.34h-27.82c-1.85,0-3.34-1.5-3.34-3.34v-12.75c0-1.82-1.47-3.32-3.29-3.32s-3.29,1.5-3.29,3.32v12.75c0,1.85-1.5,3.34-3.34,3.34h-27.82c-1.82,0-3.32-1.5-3.32-3.34v-78.92c0-5.49,1.35-10.55,3.89-14.7,1.85-2.99,4.22-5.71,7.06-8.06,3.37-2.79,7.41-5.04,12.03-6.69,9.31-3.29,20.31-3.29,29.47,0,4.57,1.65,8.63,3.89,12.23,6.84,6.91,5.71,10.88,14.45,10.88,24ZM430.31,450.36c0-4.09-2.3-4.54-3.29-4.54s-3.29.45-3.29,4.54v55.62c0,1.82,1.47,3.29,3.29,3.29s3.29-1.47,3.29-3.29v-55.62Z"/>
          <path class="cls-3" d="M508.96,441v97.26c0,4.19-3.42,7.64-7.63,7.64h-19.21c-4.19,0-7.64-3.44-7.64-7.64v-97.26c0-4.22,3.44-7.64,7.64-7.64h19.21c4.22,0,7.63,3.42,7.63,7.64Z"/>
          <path class="cls-3" d="M721.67,441v10.16c0,4.22-3.44,7.64-7.66,7.64h-10.23c-2.6,0-4.72,2.12-4.72,4.72v74.73c0,4.22-3.42,7.66-7.66,7.66h-19.16c-4.22,0-7.66-3.44-7.66-7.66v-74.73c0-2.6-2.1-4.72-4.72-4.72h-10.23c-4.22,0-7.64-3.42-7.64-7.64v-10.16c0-4.22,3.42-7.64,7.64-7.64h64.38c4.22,0,7.66,3.42,7.66,7.64Z"/>
          <path class="cls-3" d="M804.86,439.85v99.53c0,3.59-2.92,6.51-6.51,6.51h-21.48c-3.57,0-6.49-2.92-6.49-6.51v-40.72c0-2.32-1.25-3.72-3.29-3.72s-3.32,1.4-3.32,3.72v40.72c0,3.59-2.92,6.51-6.49,6.51h-21.48c-3.59,0-6.49-2.92-6.49-6.51v-99.53c0-3.59,2.89-6.49,6.49-6.49h21.48c3.57,0,6.49,2.89,6.49,6.49v40.72c0,2.35,1.25,3.72,3.32,3.72s3.29-1.37,3.29-3.72v-40.72c0-3.59,2.92-6.49,6.49-6.49h21.48c3.59,0,6.51,2.89,6.51,6.49Z"/>
        </g>
        <g>
          <path class="cls-3" d="M57.86,439.85v99.53c0,3.59-2.92,6.51-6.51,6.51h-21.48c-3.57,0-6.49-2.92-6.49-6.51v-40.72c0-2.32-1.25-3.72-3.29-3.72s-3.32,1.4-3.32,3.72v40.72c0,3.59-2.92,6.51-6.49,6.51H-11.2c-3.59,0-6.49-2.92-6.49-6.51v-99.53c0-3.59,2.89-6.49,6.49-6.49H10.28c3.57,0,6.49,2.89,6.49,6.49v40.72c0,2.35,1.25,3.72,3.32,3.72s3.29-1.37,3.29-3.72v-40.72c0-3.59,2.92-6.49,6.49-6.49h21.48c3.59,0,6.51,2.89,6.51,6.49Z"/>
          <path class="cls-3" d="M103.05,438.18v102.88c0,2.67-2.17,4.84-4.82,4.84h-24.85c-2.64,0-4.82-2.17-4.82-4.84v-102.88c0-2.67,2.17-4.82,4.82-4.82h24.85c2.65,0,4.82,2.15,4.82,4.82Z"/>
          <path class="cls-3" d="M189.31,435.46v108.32c0,1.17-.95,2.12-2.12,2.12h-22.71c-1,0-1.85-.67-2.07-1.65l-10.98-46.81c-.17-.75-.82-1.25-1.57-1.25h-.2c-.82.1-1.42.77-1.42,1.62v45.96c0,1.17-.95,2.12-2.12,2.12h-30.24c-1.17,0-2.12-.95-2.12-2.12v-108.32c0-1.15.95-2.1,2.12-2.1h22.73c.97,0,1.82.67,2.05,1.62l10.98,46.84c.2.8.95,1.35,1.77,1.22.82-.1,1.42-.77,1.42-1.6v-45.99c0-1.15.95-2.1,2.12-2.1h30.24c1.17,0,2.12.95,2.12,2.1Z"/>
          <path class="cls-3" d="M274.57,492.93v26c0,12.48-15.62,20.96-15.82,21.08-3.04,1.8-6.46,3.24-10.21,4.32-3.69,1.05-7.66,1.57-11.78,1.57-5.16,0-10.13-.82-14.77-2.47-4.64-1.65-8.68-3.89-12.05-6.69-3.34-2.77-6.04-6.06-8.01-9.73-1.95-3.62-2.94-7.59-2.94-11.73v-53.62c0-4.67.92-8.81,2.74-12.3,2-3.82,4.74-7.24,8.21-10.11,3.37-2.79,7.44-5.04,12.05-6.69,4.64-1.65,9.61-2.47,14.77-2.47s10.11.82,14.7,2.47c4.54,1.65,8.61,3.89,12.05,6.69,1.25,1.02,2.45,2.15,3.52,3.29,4.84,5.26,7.54,12.48,7.54,20.49,0,1.47-1.22,2.69-2.7,2.69h-29.09c-1.5,0-2.7-1.22-2.7-2.69v-18.24c0-3.67-2.32-4.04-3.32-4.04s-3.29.37-3.29,4.04v86.76c0,2.32,1.25,3.72,3.29,3.72s3.32-1.4,3.32-3.72v-38.63c0-1.47,1.2-2.69,2.7-2.69h29.09c1.47,0,2.7,1.22,2.7,2.69Z"/>
          <path class="cls-3" d="M323.28,468.25v-22.98c0-4.09-2.32-4.52-3.32-4.52s-3.29.42-3.29,4.52v24.58c0,5.31,3.87,9.93,9.01,10.75.9.15,1.82.25,2.82.35,2.97.27,6.31.5,9.91.65,3.42.17,6.59.8,9.48,1.9,2.79,1.07,5.17,2.79,7.06,5.14,1.87,2.27,2.82,5.76,2.82,10.38v15.17c0,5.59-1.37,10.73-3.97,14.82-1.85,2.92-4.24,5.56-7.09,7.91-3.42,2.79-7.49,5.02-12.05,6.59-9.13,3.19-20.19,3.22-29.47-.07-4.64-1.65-8.68-3.89-12.05-6.69-3.34-2.77-6.04-6.06-8.01-9.73-1.95-3.62-2.94-7.59-2.94-11.73v-10.83c0-2.05,1.67-3.69,3.72-3.69h27.05c2.05,0,3.72,1.65,3.72,3.69v26.27c0,4.09,2.32,4.54,3.29,4.54s3.32-.45,3.32-4.54v-31.56c0-1.7-.67-4.04-3.82-5.49-2.12-.95-4.79-1.72-7.89-2.3-3.04-.55-6.34-1.1-9.91-1.65-3.44-.52-6.66-1.4-9.58-2.57-2.82-1.12-5.24-2.74-7.14-4.84-1.85-2-2.77-4.84-2.77-8.46v-13.62c0-4.04,1-7.91,2.94-11.5,1.95-3.62,4.67-6.86,8.01-9.66,3.37-2.79,7.41-5.02,12.03-6.59,9.26-3.19,20.31-3.22,29.49.07,4.54,1.65,8.61,3.89,12.23,6.84,6.91,5.69,10.88,14.45,10.88,23.98v4.87c0,2.05-1.67,3.72-3.72,3.72h-27.05c-2.07,0-3.72-1.67-3.72-3.72Z"/>
        </g>
        <g>
          <path class="cls-3" d="M274.22,412.71c.38,4.17-2.7,7.89-6.86,8.29-1.65.16-16.34,1.19-33.99-8.18-8.68,6.95-20.82,11.08-32.67,11.08h-.05c-1.11,0-2.22-.04-3.32-.11-12.9-.88-23.02-6.62-28.49-16.17-13.23-23.07,1.4-38.82,16.54-51.75-3.76-9.3-5.46-17.97-4.93-25.13.54-7.23,3.37-13.19,8.17-17.22,10.4-8.73,24.5-5.17,31.61,3.13,7.27,8.49,8.27,22.6-5.89,34.98-3.33,2.91-6.64,5.64-10.01,8.39,4.45,8.04,10.32,16.28,17.03,23.88,2.81,3.19,5.82,6.08,8.95,8.62,4.41-9.28,4.12-20.62,1.42-22.95-3.19-2.76-3.54-7.59-.79-10.78,2.76-3.19,7.59-3.55,10.78-.79,9.94,8.58,8.8,28.67,1.54,42.69,12.62,5.92,22.57,5.08,22.67,5.08,4.2-.34,7.91,2.78,8.28,6.93ZM208.61,326.6c-1.51-1.76-3.84-2.86-6.07-2.86-1.52,0-2.94.52-4.11,1.49-1.6,1.34-2.52,3.58-2.75,6.65-.28,3.76.47,8.46,2.18,13.67,2.13-1.76,4.28-3.57,6.41-5.43,2.74-2.39,8.64-8.51,4.34-13.53ZM209.9,394.03c-6.87-7.78-12.75-15.85-17.51-24-12.34,10.95-16.93,18.43-10.3,29.99,3.85,6.71,11.85,8.22,16.28,8.52,7.26.51,15.13-1.31,21.41-4.88-3.45-2.88-6.77-6.11-9.88-9.63Z"/>
          <path class="cls-3" d="M91.29,343.03v77.53c0,1.85-1.5,3.34-3.32,3.34h-27.82c-1.85,0-3.34-1.5-3.34-3.34v-12.75c0-1.82-1.47-3.32-3.29-3.32s-3.29,1.5-3.29,3.32v12.75c0,1.85-1.5,3.34-3.34,3.34h-27.82c-1.82,0-3.32-1.5-3.32-3.34v-78.92c0-5.49,1.35-10.55,3.89-14.7,1.85-2.99,4.22-5.71,7.06-8.06,3.37-2.79,7.41-5.04,12.03-6.69,9.31-3.29,20.31-3.29,29.47,0,4.57,1.65,8.63,3.89,12.23,6.84,6.91,5.71,10.88,14.45,10.88,24ZM56.81,328.36c0-4.09-2.3-4.54-3.29-4.54s-3.29.45-3.29,4.54v55.62c0,1.82,1.47,3.29,3.29,3.29s3.29-1.47,3.29-3.29v-55.62Z"/>
          <path class="cls-3" d="M135.46,319v97.26c0,4.19-3.42,7.64-7.63,7.64h-19.21c-4.19,0-7.64-3.44-7.64-7.64v-97.26c0-4.22,3.44-7.64,7.64-7.64h19.21c4.22,0,7.63,3.42,7.63,7.64Z"/>
          <path class="cls-3" d="M348.17,319v10.16c0,4.22-3.44,7.64-7.66,7.64h-10.23c-2.6,0-4.72,2.12-4.72,4.72v74.73c0,4.22-3.42,7.66-7.66,7.66h-19.16c-4.22,0-7.66-3.44-7.66-7.66v-74.73c0-2.6-2.1-4.72-4.72-4.72h-10.23c-4.22,0-7.64-3.42-7.64-7.64v-10.16c0-4.22,3.42-7.64,7.64-7.64h64.38c4.22,0,7.66,3.42,7.66,7.64Z"/>
          <path class="cls-3" d="M431.36,317.85v99.53c0,3.59-2.92,6.51-6.51,6.51h-21.48c-3.57,0-6.49-2.92-6.49-6.51v-40.72c0-2.32-1.25-3.72-3.29-3.72s-3.32,1.4-3.32,3.72v40.72c0,3.59-2.92,6.51-6.49,6.51h-21.48c-3.59,0-6.49-2.92-6.49-6.51v-99.53c0-3.59,2.89-6.49,6.49-6.49h21.48c3.57,0,6.49,2.89,6.49,6.49v40.72c0,2.35,1.25,3.72,3.32,3.72s3.29-1.37,3.29-3.72v-40.72c0-3.59,2.92-6.49,6.49-6.49h21.48c3.59,0,6.51,2.89,6.51,6.49Z"/>
          <path class="cls-3" d="M476.55,316.18v102.88c0,2.67-2.17,4.84-4.82,4.84h-24.85c-2.64,0-4.82-2.17-4.82-4.84v-102.88c0-2.67,2.17-4.82,4.82-4.82h24.85c2.65,0,4.82,2.15,4.82,4.82Z"/>
          <path class="cls-3" d="M562.81,313.46v108.32c0,1.17-.95,2.12-2.12,2.12h-22.71c-1,0-1.85-.67-2.07-1.65l-10.98-46.81c-.17-.75-.82-1.25-1.57-1.25h-.2c-.82.1-1.42.77-1.42,1.62v45.96c0,1.17-.95,2.12-2.12,2.12h-30.24c-1.17,0-2.12-.95-2.12-2.12v-108.32c0-1.15.95-2.1,2.12-2.1h22.73c.97,0,1.82.67,2.05,1.62l10.98,46.84c.2.8.95,1.35,1.77,1.22.82-.1,1.42-.77,1.42-1.6v-45.99c0-1.15.95-2.1,2.12-2.1h30.24c1.17,0,2.12.95,2.12,2.1Z"/>
          <path class="cls-3" d="M648.07,370.93v26c0,12.48-15.62,20.96-15.82,21.08-3.04,1.8-6.46,3.24-10.21,4.32-3.69,1.05-7.66,1.57-11.78,1.57-5.16,0-10.13-.82-14.77-2.47-4.64-1.65-8.68-3.89-12.05-6.69-3.34-2.77-6.04-6.06-8.01-9.73-1.95-3.62-2.94-7.59-2.94-11.73v-53.62c0-4.67.92-8.81,2.74-12.3,2-3.82,4.74-7.24,8.21-10.11,3.37-2.79,7.44-5.04,12.05-6.69,4.64-1.65,9.61-2.47,14.77-2.47s10.11.82,14.7,2.47c4.54,1.65,8.61,3.89,12.05,6.69,1.25,1.02,2.45,2.15,3.52,3.29,4.84,5.26,7.54,12.48,7.54,20.49,0,1.47-1.22,2.69-2.7,2.69h-29.09c-1.5,0-2.7-1.22-2.7-2.69v-18.24c0-3.67-2.32-4.04-3.32-4.04s-3.29.37-3.29,4.04v86.76c0,2.32,1.25,3.72,3.29,3.72s3.32-1.4,3.32-3.72v-38.63c0-1.47,1.2-2.69,2.7-2.69h29.09c1.47,0,2.7,1.22,2.7,2.69Z"/>
          <path class="cls-3" d="M696.78,346.25v-22.98c0-4.09-2.32-4.52-3.32-4.52s-3.29.42-3.29,4.52v24.58c0,5.31,3.87,9.93,9.01,10.75.9.15,1.82.25,2.82.35,2.97.27,6.31.5,9.91.65,3.42.17,6.59.8,9.48,1.9,2.79,1.07,5.17,2.79,7.06,5.14,1.87,2.27,2.82,5.76,2.82,10.38v15.17c0,5.59-1.37,10.73-3.97,14.82-1.85,2.92-4.24,5.56-7.09,7.91-3.42,2.79-7.49,5.02-12.05,6.59-9.13,3.19-20.19,3.22-29.47-.07-4.64-1.65-8.68-3.89-12.05-6.69-3.34-2.77-6.04-6.06-8.01-9.73-1.95-3.62-2.94-7.59-2.94-11.73v-10.83c0-2.05,1.67-3.69,3.72-3.69h27.05c2.05,0,3.72,1.65,3.72,3.69v26.27c0,4.09,2.32,4.54,3.29,4.54s3.32-.45,3.32-4.54v-31.56c0-1.7-.67-4.04-3.82-5.49-2.12-.95-4.79-1.72-7.89-2.3-3.04-.55-6.34-1.1-9.91-1.65-3.44-.52-6.66-1.4-9.58-2.57-2.82-1.12-5.24-2.74-7.14-4.84-1.85-2-2.77-4.84-2.77-8.46v-13.62c0-4.04,1-7.91,2.94-11.5,1.95-3.62,4.67-6.86,8.01-9.66,3.37-2.79,7.41-5.02,12.03-6.59,9.26-3.19,20.31-3.22,29.49.07,4.54,1.65,8.61,3.89,12.23,6.84,6.91,5.69,10.88,14.45,10.88,23.98v4.87c0,2.05-1.67,3.72-3.72,3.72h-27.05c-2.07,0-3.72-1.67-3.72-3.72Z"/>
        </g>
        <g>
          <path class="cls-3" d="M647.72,290.71c.38,4.17-2.7,7.89-6.86,8.29-1.65.16-16.34,1.19-33.99-8.18-8.68,6.95-20.82,11.08-32.67,11.08h-.05c-1.11,0-2.22-.04-3.32-.11-12.9-.88-23.02-6.62-28.49-16.17-13.23-23.07,1.4-38.82,16.54-51.75-3.76-9.3-5.46-17.97-4.93-25.13.54-7.23,3.37-13.19,8.17-17.22,10.4-8.73,24.5-5.17,31.61,3.13,7.27,8.49,8.27,22.6-5.89,34.98-3.33,2.91-6.64,5.64-10.01,8.39,4.45,8.04,10.32,16.28,17.03,23.88,2.81,3.19,5.82,6.08,8.95,8.62,4.41-9.28,4.12-20.62,1.42-22.95-3.19-2.76-3.54-7.59-.79-10.78,2.76-3.19,7.59-3.55,10.78-.79,9.94,8.58,8.8,28.67,1.54,42.69,12.62,5.92,22.57,5.08,22.67,5.08,4.2-.34,7.91,2.78,8.28,6.93ZM582.11,204.6c-1.51-1.76-3.84-2.86-6.07-2.86-1.52,0-2.94.52-4.11,1.49-1.6,1.34-2.52,3.58-2.75,6.65-.28,3.76.47,8.46,2.18,13.67,2.13-1.76,4.28-3.57,6.41-5.43,2.74-2.39,8.64-8.51,4.34-13.53ZM583.4,272.03c-6.87-7.78-12.75-15.85-17.51-24-12.34,10.95-16.93,18.43-10.3,29.99,3.85,6.71,11.85,8.22,16.28,8.52,7.26.51,15.13-1.31,21.41-4.88-3.45-2.88-6.77-6.11-9.88-9.63Z"/>
          <path class="cls-3" d="M464.79,221.03v77.53c0,1.85-1.5,3.34-3.32,3.34h-27.82c-1.85,0-3.34-1.5-3.34-3.34v-12.75c0-1.82-1.47-3.32-3.29-3.32s-3.29,1.5-3.29,3.32v12.75c0,1.85-1.5,3.34-3.34,3.34h-27.82c-1.82,0-3.32-1.5-3.32-3.34v-78.92c0-5.49,1.35-10.55,3.89-14.7,1.85-2.99,4.22-5.71,7.06-8.06,3.37-2.79,7.41-5.04,12.03-6.69,9.31-3.29,20.31-3.29,29.47,0,4.57,1.65,8.63,3.89,12.23,6.84,6.91,5.71,10.88,14.45,10.88,24ZM430.31,206.36c0-4.09-2.3-4.54-3.29-4.54s-3.29.45-3.29,4.54v55.62c0,1.82,1.47,3.29,3.29,3.29s3.29-1.47,3.29-3.29v-55.62Z"/>
          <path class="cls-3" d="M508.96,197v97.26c0,4.19-3.42,7.64-7.63,7.64h-19.21c-4.19,0-7.64-3.44-7.64-7.64v-97.26c0-4.22,3.44-7.64,7.64-7.64h19.21c4.22,0,7.63,3.42,7.63,7.64Z"/>
          <path class="cls-3" d="M721.67,197v10.16c0,4.22-3.44,7.64-7.66,7.64h-10.23c-2.6,0-4.72,2.12-4.72,4.72v74.73c0,4.22-3.42,7.66-7.66,7.66h-19.16c-4.22,0-7.66-3.44-7.66-7.66v-74.73c0-2.6-2.1-4.72-4.72-4.72h-10.23c-4.22,0-7.64-3.42-7.64-7.64v-10.16c0-4.22,3.42-7.64,7.64-7.64h64.38c4.22,0,7.66,3.42,7.66,7.64Z"/>
          <path class="cls-3" d="M804.86,195.85v99.53c0,3.59-2.92,6.51-6.51,6.51h-21.48c-3.57,0-6.49-2.92-6.49-6.51v-40.72c0-2.32-1.25-3.72-3.29-3.72s-3.32,1.4-3.32,3.72v40.72c0,3.59-2.92,6.51-6.49,6.51h-21.48c-3.59,0-6.49-2.92-6.49-6.51v-99.53c0-3.59,2.89-6.49,6.49-6.49h21.48c3.57,0,6.49,2.89,6.49,6.49v40.72c0,2.35,1.25,3.72,3.32,3.72s3.29-1.37,3.29-3.72v-40.72c0-3.59,2.92-6.49,6.49-6.49h21.48c3.59,0,6.51,2.89,6.51,6.49Z"/>
        </g>
        <g>
          <path class="cls-3" d="M57.86,195.85v99.53c0,3.59-2.92,6.51-6.51,6.51h-21.48c-3.57,0-6.49-2.92-6.49-6.51v-40.72c0-2.32-1.25-3.72-3.29-3.72s-3.32,1.4-3.32,3.72v40.72c0,3.59-2.92,6.51-6.49,6.51H-11.2c-3.59,0-6.49-2.92-6.49-6.51v-99.53c0-3.59,2.89-6.49,6.49-6.49H10.28c3.57,0,6.49,2.89,6.49,6.49v40.72c0,2.35,1.25,3.72,3.32,3.72s3.29-1.37,3.29-3.72v-40.72c0-3.59,2.92-6.49,6.49-6.49h21.48c3.59,0,6.51,2.89,6.51,6.49Z"/>
          <path class="cls-3" d="M103.05,194.18v102.88c0,2.67-2.17,4.84-4.82,4.84h-24.85c-2.64,0-4.82-2.17-4.82-4.84v-102.88c0-2.67,2.17-4.82,4.82-4.82h24.85c2.65,0,4.82,2.15,4.82,4.82Z"/>
          <path class="cls-3" d="M189.31,191.46v108.32c0,1.17-.95,2.12-2.12,2.12h-22.71c-1,0-1.85-.67-2.07-1.65l-10.98-46.81c-.17-.75-.82-1.25-1.57-1.25h-.2c-.82.1-1.42.77-1.42,1.62v45.96c0,1.17-.95,2.12-2.12,2.12h-30.24c-1.17,0-2.12-.95-2.12-2.12v-108.32c0-1.15.95-2.1,2.12-2.1h22.73c.97,0,1.82.67,2.05,1.62l10.98,46.84c.2.8.95,1.35,1.77,1.22.82-.1,1.42-.77,1.42-1.6v-45.99c0-1.15.95-2.1,2.12-2.1h30.24c1.17,0,2.12.95,2.12,2.1Z"/>
          <path class="cls-3" d="M274.57,248.93v26c0,12.48-15.62,20.96-15.82,21.08-3.04,1.8-6.46,3.24-10.21,4.32-3.69,1.05-7.66,1.57-11.78,1.57-5.16,0-10.13-.82-14.77-2.47-4.64-1.65-8.68-3.89-12.05-6.69-3.34-2.77-6.04-6.06-8.01-9.73-1.95-3.62-2.94-7.59-2.94-11.73v-53.62c0-4.67.92-8.81,2.74-12.3,2-3.82,4.74-7.24,8.21-10.11,3.37-2.79,7.44-5.04,12.05-6.69,4.64-1.65,9.61-2.47,14.77-2.47s10.11.82,14.7,2.47c4.54,1.65,8.61,3.89,12.05,6.69,1.25,1.02,2.45,2.15,3.52,3.29,4.84,5.26,7.54,12.48,7.54,20.49,0,1.47-1.22,2.69-2.7,2.69h-29.09c-1.5,0-2.7-1.22-2.7-2.69v-18.24c0-3.67-2.32-4.04-3.32-4.04s-3.29.37-3.29,4.04v86.76c0,2.32,1.25,3.72,3.29,3.72s3.32-1.4,3.32-3.72v-38.63c0-1.47,1.2-2.69,2.7-2.69h29.09c1.47,0,2.7,1.22,2.7,2.69Z"/>
          <path class="cls-3" d="M323.28,224.25v-22.98c0-4.09-2.32-4.52-3.32-4.52s-3.29.42-3.29,4.52v24.58c0,5.31,3.87,9.93,9.01,10.75.9.15,1.82.25,2.82.35,2.97.27,6.31.5,9.91.65,3.42.17,6.59.8,9.48,1.9,2.79,1.07,5.17,2.79,7.06,5.14,1.87,2.27,2.82,5.76,2.82,10.38v15.17c0,5.59-1.37,10.73-3.97,14.82-1.85,2.92-4.24,5.56-7.09,7.91-3.42,2.79-7.49,5.02-12.05,6.59-9.13,3.19-20.19,3.22-29.47-.07-4.64-1.65-8.68-3.89-12.05-6.69-3.34-2.77-6.04-6.06-8.01-9.73-1.95-3.62-2.94-7.59-2.94-11.73v-10.83c0-2.05,1.67-3.69,3.72-3.69h27.05c2.05,0,3.72,1.65,3.72,3.69v26.27c0,4.09,2.32,4.54,3.29,4.54s3.32-.45,3.32-4.54v-31.56c0-1.7-.67-4.04-3.82-5.49-2.12-.95-4.79-1.72-7.89-2.3-3.04-.55-6.34-1.1-9.91-1.65-3.44-.52-6.66-1.4-9.58-2.57-2.82-1.12-5.24-2.74-7.14-4.84-1.85-2-2.77-4.84-2.77-8.46v-13.62c0-4.04,1-7.91,2.94-11.5,1.95-3.62,4.67-6.86,8.01-9.66,3.37-2.79,7.41-5.02,12.03-6.59,9.26-3.19,20.31-3.22,29.49.07,4.54,1.65,8.61,3.89,12.23,6.84,6.91,5.69,10.88,14.45,10.88,23.98v4.87c0,2.05-1.67,3.72-3.72,3.72h-27.05c-2.07,0-3.72-1.67-3.72-3.72Z"/>
        </g>
        <g>
          <path class="cls-3" d="M274.22,168.71c.38,4.17-2.7,7.89-6.86,8.29-1.65.16-16.34,1.19-33.99-8.18-8.68,6.95-20.82,11.08-32.67,11.08h-.05c-1.11,0-2.22-.04-3.32-.11-12.9-.88-23.02-6.62-28.49-16.17-13.23-23.07,1.4-38.82,16.54-51.75-3.76-9.3-5.46-17.97-4.93-25.13.54-7.23,3.37-13.19,8.17-17.22,10.4-8.73,24.5-5.17,31.61,3.13,7.27,8.49,8.27,22.6-5.89,34.98-3.33,2.91-6.64,5.64-10.01,8.39,4.45,8.04,10.32,16.28,17.03,23.88,2.81,3.19,5.82,6.08,8.95,8.62,4.41-9.28,4.12-20.62,1.42-22.95-3.19-2.76-3.54-7.59-.79-10.78,2.76-3.19,7.59-3.55,10.78-.79,9.94,8.58,8.8,28.67,1.54,42.69,12.62,5.92,22.57,5.08,22.67,5.08,4.2-.34,7.91,2.78,8.28,6.93ZM208.61,82.6c-1.51-1.76-3.84-2.86-6.07-2.86-1.52,0-2.94.52-4.11,1.49-1.6,1.34-2.52,3.58-2.75,6.65-.28,3.76.47,8.46,2.18,13.67,2.13-1.76,4.28-3.57,6.41-5.43,2.74-2.39,8.64-8.51,4.34-13.53ZM209.9,150.03c-6.87-7.78-12.75-15.85-17.51-24-12.34,10.95-16.93,18.43-10.3,29.99,3.85,6.71,11.85,8.22,16.28,8.52,7.26.51,15.13-1.31,21.41-4.88-3.45-2.88-6.77-6.11-9.88-9.63Z"/>
          <path class="cls-3" d="M91.29,99.03v77.53c0,1.85-1.5,3.34-3.32,3.34h-27.82c-1.85,0-3.34-1.5-3.34-3.34v-12.75c0-1.82-1.47-3.32-3.29-3.32s-3.29,1.5-3.29,3.32v12.75c0,1.85-1.5,3.34-3.34,3.34h-27.82c-1.82,0-3.32-1.5-3.32-3.34v-78.92c0-5.49,1.35-10.55,3.89-14.7,1.85-2.99,4.22-5.71,7.06-8.06,3.37-2.79,7.41-5.04,12.03-6.69,9.31-3.29,20.31-3.29,29.47,0,4.57,1.65,8.63,3.89,12.23,6.84,6.91,5.71,10.88,14.45,10.88,24ZM56.81,84.36c0-4.09-2.3-4.54-3.29-4.54s-3.29.45-3.29,4.54v55.62c0,1.82,1.47,3.29,3.29,3.29s3.29-1.47,3.29-3.29v-55.62Z"/>
          <path class="cls-3" d="M135.46,75v97.26c0,4.19-3.42,7.64-7.63,7.64h-19.21c-4.19,0-7.64-3.44-7.64-7.64v-97.26c0-4.22,3.44-7.64,7.64-7.64h19.21c4.22,0,7.63,3.42,7.63,7.64Z"/>
          <path class="cls-3" d="M348.17,75v10.16c0,4.22-3.44,7.64-7.66,7.64h-10.23c-2.6,0-4.72,2.12-4.72,4.72v74.73c0,4.22-3.42,7.66-7.66,7.66h-19.16c-4.22,0-7.66-3.44-7.66-7.66v-74.73c0-2.6-2.1-4.72-4.72-4.72h-10.23c-4.22,0-7.64-3.42-7.64-7.64v-10.16c0-4.22,3.42-7.64,7.64-7.64h64.38c4.22,0,7.66,3.42,7.66,7.64Z"/>
          <path class="cls-3" d="M431.36,73.85v99.53c0,3.59-2.92,6.51-6.51,6.51h-21.48c-3.57,0-6.49-2.92-6.49-6.51v-40.72c0-2.32-1.25-3.72-3.29-3.72s-3.32,1.4-3.32,3.72v40.72c0,3.59-2.92,6.51-6.49,6.51h-21.48c-3.59,0-6.49-2.92-6.49-6.51v-99.53c0-3.59,2.89-6.49,6.49-6.49h21.48c3.57,0,6.49,2.89,6.49,6.49v40.72c0,2.35,1.25,3.72,3.32,3.72s3.29-1.37,3.29-3.72v-40.72c0-3.59,2.92-6.49,6.49-6.49h21.48c3.59,0,6.51,2.89,6.51,6.49Z"/>
          <path class="cls-3" d="M476.55,72.18v102.88c0,2.67-2.17,4.84-4.82,4.84h-24.85c-2.64,0-4.82-2.17-4.82-4.84v-102.88c0-2.67,2.17-4.82,4.82-4.82h24.85c2.65,0,4.82,2.15,4.82,4.82Z"/>
          <path class="cls-3" d="M562.81,69.46v108.32c0,1.17-.95,2.12-2.12,2.12h-22.71c-1,0-1.85-.67-2.07-1.65l-10.98-46.81c-.17-.75-.82-1.25-1.57-1.25h-.2c-.82.1-1.42.77-1.42,1.62v45.96c0,1.17-.95,2.12-2.12,2.12h-30.24c-1.17,0-2.12-.95-2.12-2.12v-108.32c0-1.15.95-2.1,2.12-2.1h22.73c.97,0,1.82.67,2.05,1.62l10.98,46.84c.2.8.95,1.35,1.77,1.22.82-.1,1.42-.77,1.42-1.6v-45.99c0-1.15.95-2.1,2.12-2.1h30.24c1.17,0,2.12.95,2.12,2.1Z"/>
          <path class="cls-3" d="M648.07,126.93v26c0,12.48-15.62,20.96-15.82,21.08-3.04,1.8-6.46,3.24-10.21,4.32-3.69,1.05-7.66,1.57-11.78,1.57-5.16,0-10.13-.82-14.77-2.47-4.64-1.65-8.68-3.89-12.05-6.69-3.34-2.77-6.04-6.06-8.01-9.73-1.95-3.62-2.94-7.59-2.94-11.73v-53.62c0-4.67.92-8.81,2.74-12.3,2-3.82,4.74-7.24,8.21-10.11,3.37-2.79,7.44-5.04,12.05-6.69,4.64-1.65,9.61-2.47,14.77-2.47s10.11.82,14.7,2.47c4.54,1.65,8.61,3.89,12.05,6.69,1.25,1.02,2.45,2.15,3.52,3.29,4.84,5.26,7.54,12.48,7.54,20.49,0,1.47-1.22,2.69-2.7,2.69h-29.09c-1.5,0-2.7-1.22-2.7-2.69v-18.24c0-3.67-2.32-4.04-3.32-4.04s-3.29.37-3.29,4.04v86.76c0,2.32,1.25,3.72,3.29,3.72s3.32-1.4,3.32-3.72v-38.63c0-1.47,1.2-2.69,2.7-2.69h29.09c1.47,0,2.7,1.22,2.7,2.69Z"/>
          <path class="cls-3" d="M696.78,102.25v-22.98c0-4.09-2.32-4.52-3.32-4.52s-3.29.42-3.29,4.52v24.58c0,5.31,3.87,9.93,9.01,10.75.9.15,1.82.25,2.82.35,2.97.27,6.31.5,9.91.65,3.42.17,6.59.8,9.48,1.9,2.79,1.07,5.17,2.79,7.06,5.14,1.87,2.27,2.82,5.76,2.82,10.38v15.17c0,5.59-1.37,10.73-3.97,14.82-1.85,2.92-4.24,5.56-7.09,7.91-3.42,2.79-7.49,5.02-12.05,6.59-9.13,3.19-20.19,3.22-29.47-.07-4.64-1.65-8.68-3.89-12.05-6.69-3.34-2.77-6.04-6.06-8.01-9.73-1.95-3.62-2.94-7.59-2.94-11.73v-10.83c0-2.05,1.67-3.69,3.72-3.69h27.05c2.05,0,3.72,1.65,3.72,3.69v26.27c0,4.09,2.32,4.54,3.29,4.54s3.32-.45,3.32-4.54v-31.56c0-1.7-.67-4.04-3.82-5.49-2.12-.95-4.79-1.72-7.89-2.3-3.04-.55-6.34-1.1-9.91-1.65-3.44-.52-6.66-1.4-9.58-2.57-2.82-1.12-5.24-2.74-7.14-4.84-1.85-2-2.77-4.84-2.77-8.46v-13.62c0-4.04,1-7.91,2.94-11.5,1.95-3.62,4.67-6.86,8.01-9.66,3.37-2.79,7.41-5.02,12.03-6.59,9.26-3.19,20.31-3.22,29.49.07,4.54,1.65,8.61,3.89,12.23,6.84,6.91,5.69,10.88,14.45,10.88,23.98v4.87c0,2.05-1.67,3.72-3.72,3.72h-27.05c-2.07,0-3.72-1.67-3.72-3.72Z"/>
        </g>
        <g>
          <path class="cls-3" d="M647.72,46.71c.38,4.17-2.7,7.89-6.86,8.29-1.65.16-16.34,1.19-33.99-8.18-8.68,6.95-20.82,11.08-32.67,11.08h-.05c-1.11,0-2.22-.04-3.32-.11-12.9-.88-23.02-6.62-28.49-16.17-13.23-23.07,1.4-38.82,16.54-51.75-3.76-9.3-5.46-17.97-4.93-25.13.54-7.23,3.37-13.19,8.17-17.22,10.4-8.73,24.5-5.17,31.61,3.13,7.27,8.49,8.27,22.6-5.89,34.98-3.33,2.91-6.64,5.64-10.01,8.39,4.45,8.04,10.32,16.28,17.03,23.88,2.81,3.19,5.82,6.08,8.95,8.62,4.41-9.28,4.12-20.62,1.42-22.95-3.19-2.76-3.54-7.59-.79-10.78,2.76-3.19,7.59-3.55,10.78-.79,9.94,8.58,8.8,28.67,1.54,42.69,12.62,5.92,22.57,5.08,22.67,5.08,4.2-.34,7.91,2.78,8.28,6.93ZM582.11-39.4c-1.51-1.76-3.84-2.86-6.07-2.86-1.52,0-2.94.52-4.11,1.49-1.6,1.34-2.52,3.58-2.75,6.65-.28,3.76.47,8.46,2.18,13.67,2.13-1.76,4.28-3.57,6.41-5.43,2.74-2.39,8.64-8.51,4.34-13.53ZM583.4,28.03c-6.87-7.78-12.75-15.85-17.51-24-12.34,10.95-16.93,18.43-10.3,29.99,3.85,6.71,11.85,8.22,16.28,8.52,7.26.51,15.13-1.31,21.41-4.88-3.45-2.88-6.77-6.11-9.88-9.63Z"/>
          <path class="cls-3" d="M464.79-22.97V54.56c0,1.85-1.5,3.34-3.32,3.34h-27.82c-1.85,0-3.34-1.5-3.34-3.34v-12.75c0-1.82-1.47-3.32-3.29-3.32s-3.29,1.5-3.29,3.32v12.75c0,1.85-1.5,3.34-3.34,3.34h-27.82c-1.82,0-3.32-1.5-3.32-3.34V-24.37c0-5.49,1.35-10.55,3.89-14.7,1.85-2.99,4.22-5.71,7.06-8.06,3.37-2.79,7.41-5.04,12.03-6.69,9.31-3.29,20.31-3.29,29.47,0,4.57,1.65,8.63,3.89,12.23,6.84,6.91,5.71,10.88,14.45,10.88,24ZM430.31-37.64c0-4.09-2.3-4.54-3.29-4.54s-3.29.45-3.29,4.54V17.98c0,1.82,1.47,3.29,3.29,3.29s3.29-1.47,3.29-3.29v-55.62Z"/>
          <path class="cls-3" d="M508.96-47V50.27c0,4.19-3.42,7.64-7.63,7.64h-19.21c-4.19,0-7.64-3.44-7.64-7.64V-47c0-4.22,3.44-7.64,7.64-7.64h19.21c4.22,0,7.63,3.42,7.63,7.64Z"/>
          <path class="cls-3" d="M721.67-47v10.16c0,4.22-3.44,7.64-7.66,7.64h-10.23c-2.6,0-4.72,2.12-4.72,4.72V50.24c0,4.22-3.42,7.66-7.66,7.66h-19.16c-4.22,0-7.66-3.44-7.66-7.66V-24.49c0-2.6-2.1-4.72-4.72-4.72h-10.23c-4.22,0-7.64-3.42-7.64-7.64v-10.16c0-4.22,3.42-7.64,7.64-7.64h64.38c4.22,0,7.66,3.42,7.66,7.64Z"/>
          <path class="cls-3" d="M804.86-48.15V51.39c0,3.59-2.92,6.51-6.51,6.51h-21.48c-3.57,0-6.49-2.92-6.49-6.51V10.67c0-2.32-1.25-3.72-3.29-3.72s-3.32,1.4-3.32,3.72v40.72c0,3.59-2.92,6.51-6.49,6.51h-21.48c-3.59,0-6.49-2.92-6.49-6.51V-48.15c0-3.59,2.89-6.49,6.49-6.49h21.48c3.57,0,6.49,2.89,6.49,6.49V-7.42c0,2.35,1.25,3.72,3.32,3.72s3.29-1.37,3.29-3.72v-40.72c0-3.59,2.92-6.49,6.49-6.49h21.48c3.59,0,6.51,2.89,6.51,6.49Z"/>
        </g>
        <g>
          <path class="cls-3" d="M57.86-48.15V51.39c0,3.59-2.92,6.51-6.51,6.51h-21.48c-3.57,0-6.49-2.92-6.49-6.51V10.67c0-2.32-1.25-3.72-3.29-3.72s-3.32,1.4-3.32,3.72v40.72c0,3.59-2.92,6.51-6.49,6.51H-11.2c-3.59,0-6.49-2.92-6.49-6.51V-48.15c0-3.59,2.89-6.49,6.49-6.49H10.28c3.57,0,6.49,2.89,6.49,6.49V-7.42c0,2.35,1.25,3.72,3.32,3.72s3.29-1.37,3.29-3.72v-40.72c0-3.59,2.92-6.49,6.49-6.49h21.48c3.59,0,6.51,2.89,6.51,6.49Z"/>
          <path class="cls-3" d="M103.05-49.82V53.06c0,2.67-2.17,4.84-4.82,4.84h-24.85c-2.64,0-4.82-2.17-4.82-4.84V-49.82c0-2.67,2.17-4.82,4.82-4.82h24.85c2.65,0,4.82,2.15,4.82,4.82Z"/>
          <path class="cls-3" d="M189.31-52.54V55.78c0,1.17-.95,2.12-2.12,2.12h-22.71c-1,0-1.85-.67-2.07-1.65l-10.98-46.81c-.17-.75-.82-1.25-1.57-1.25h-.2c-.82.1-1.42.77-1.42,1.62v45.96c0,1.17-.95,2.12-2.12,2.12h-30.24c-1.17,0-2.12-.95-2.12-2.12V-52.54c0-1.15.95-2.1,2.12-2.1h22.73c.97,0,1.82.67,2.05,1.62l10.98,46.84c.2.8.95,1.35,1.77,1.22.82-.1,1.42-.77,1.42-1.6v-45.99c0-1.15.95-2.1,2.12-2.1h30.24c1.17,0,2.12.95,2.12,2.1Z"/>
          <path class="cls-3" d="M274.57,4.93v26c0,12.48-15.62,20.96-15.82,21.08-3.04,1.8-6.46,3.24-10.21,4.32-3.69,1.05-7.66,1.57-11.78,1.57-5.16,0-10.13-.82-14.77-2.47-4.64-1.65-8.68-3.89-12.05-6.69-3.34-2.77-6.04-6.06-8.01-9.73-1.95-3.62-2.94-7.59-2.94-11.73V-26.34c0-4.67.92-8.81,2.74-12.3,2-3.82,4.74-7.24,8.21-10.11,3.37-2.79,7.44-5.04,12.05-6.69,4.64-1.65,9.61-2.47,14.77-2.47s10.11.82,14.7,2.47c4.54,1.65,8.61,3.89,12.05,6.69,1.25,1.02,2.45,2.15,3.52,3.29,4.84,5.26,7.54,12.48,7.54,20.49,0,1.47-1.22,2.69-2.7,2.69h-29.09c-1.5,0-2.7-1.22-2.7-2.69v-18.24c0-3.67-2.32-4.04-3.32-4.04s-3.29.37-3.29,4.04V43.55c0,2.32,1.25,3.72,3.29,3.72s3.32-1.4,3.32-3.72V4.93c0-1.47,1.2-2.69,2.7-2.69h29.09c1.47,0,2.7,1.22,2.7,2.69Z"/>
          <path class="cls-3" d="M323.28-19.75v-22.98c0-4.09-2.32-4.52-3.32-4.52s-3.29.42-3.29,4.52v24.58c0,5.31,3.87,9.93,9.01,10.75.9.15,1.82.25,2.82.35,2.97.27,6.31.5,9.91.65,3.42.17,6.59.8,9.48,1.9,2.79,1.07,5.17,2.79,7.06,5.14,1.87,2.27,2.82,5.76,2.82,10.38v15.17c0,5.59-1.37,10.73-3.97,14.82-1.85,2.92-4.24,5.56-7.09,7.91-3.42,2.79-7.49,5.02-12.05,6.59-9.13,3.19-20.19,3.22-29.47-.07-4.64-1.65-8.68-3.89-12.05-6.69-3.34-2.77-6.04-6.06-8.01-9.73-1.95-3.62-2.94-7.59-2.94-11.73v-10.83c0-2.05,1.67-3.69,3.72-3.69h27.05c2.05,0,3.72,1.65,3.72,3.69v26.27c0,4.09,2.32,4.54,3.29,4.54s3.32-.45,3.32-4.54V11.17c0-1.7-.67-4.04-3.82-5.49-2.12-.95-4.79-1.72-7.89-2.3-3.04-.55-6.34-1.1-9.91-1.65-3.44-.52-6.66-1.4-9.58-2.57-2.82-1.12-5.24-2.74-7.14-4.84-1.85-2-2.77-4.84-2.77-8.46v-13.62c0-4.04,1-7.91,2.94-11.5,1.95-3.62,4.67-6.86,8.01-9.66,3.37-2.79,7.41-5.02,12.03-6.59,9.26-3.19,20.31-3.22,29.49.07,4.54,1.65,8.61,3.89,12.23,6.84,6.91,5.69,10.88,14.45,10.88,23.98v4.87c0,2.05-1.67,3.72-3.72,3.72h-27.05c-2.07,0-3.72-1.67-3.72-3.72Z"/>
        </g>
      </g>
    </pattern>
  </defs>
  <rect class="cls-1" x="30.23" y="27.04" width="939.54" height="945.91"/>
</svg>