<?xml version="1.0" encoding="UTF-8"?>
<svg id="Layer_1" data-name="Layer 1" xmlns="http://www.w3.org/2000/svg" xmlns:xlink="http://www.w3.org/1999/xlink" viewBox="0 0 1000 1000">
  <defs>
    <style>
      .cls-1 {
        fill: url(#linear-gradient);
      }
    </style>
    <linearGradient id="linear-gradient" x1="400.48" y1="647.23" x2="600.72" y2="414.06" gradientUnits="userSpaceOnUse">
      <stop offset="0" stop-color="#7226ff"/>
      <stop offset="1" stop-color="#f024ff"/>
    </linearGradient>
  </defs>
  <path class="cls-1" d="M629.75,552.54c-22.91-10.27-46.54-17.17-72.24-15.95.12-.61.1-.78.18-.84,1.2-.9,2.45-1.74,3.63-2.68,29.98-23.97,42.71-55.02,35.06-92.67-11.14-54.83-65.97-87.63-120-73.02-34.39,9.3-61.05,40.11-65.06,75.2-1.95,17.05-8.08,24.26-24.65,28.77-5.74,1.56-11.62,2.67-17.32,4.37-7.74,2.31-11.33,8.83-10.11,16.66,1.73,11.08,8.96,18.02,17.54,23.91,13.89,9.54,29.99,12.78,46.17,15.67,5.65,1.01,11.34,1.74,17.81,2.71-5.6,3.24-10.1,6.46-14.21,10.15-25.42,22.83-40.64,50.61-41.52,85.44-.12,4.56,1.12,5.85,5.74,5.84,57.86-.16,115.72-.2,173.58-.06,23.95.06,42.11-10.1,54.89-30.05,9.68-15.1,13.21-31.87,12.87-49.65-.04-2.11-.41-2.92-2.37-3.79ZM462.32,520.51c-2.1.36-4.16.58-6.27.49-24.92-.82-48.9-5.64-71.28-17.02-4.12-2.1-8.29-4.33-11.18-8.15-3.06-4.04-2.22-6.55,2.65-7.69,4.21-.98,8.52-1.55,12.75-2.49,7.84-1.74,14.77-5.32,21.17-10.22,7.54-5.78,13.59-5.31,20.31,1.56,10.11,10.35,20.61,20.18,32.98,27.84,1.94,1.2,3.37,2.98,4.38,5.05,2.65,5.44.42,9.59-5.5,10.61ZM539.86,445.44l-4.18,1.15c-.44.16-.89.29-1.34.42,0,0-.01,0-.02,0-5.17,1.96-11.16,4.93-15.91,9.3-3.46,3.19-8.91,17.26-11.59,24.6-.55,1.52-2.69,1.52-3.26.01-2.03-5.38-5.6-14.36-8.72-20.04h0c-1.17-1.85-2.38-3.43-3.62-4.57-.81-.74-1.48-1.43-2.05-2.09-.01-.01-.02-.02-.04-.04-4.15-3.17-8.89-5.47-13.11-7.09-.44-.14-1.15-.38-1.6-.52l-4.18-1.15c-1.71-.47-1.7-2.89,0-3.36l3.78-1.03s.01,0,.02,0c5.13-1.8,11.34-4.67,16.4-8.95,0,0,.01,0,.02-.02.28-.3.58-.6.92-.91.48-.44.95-.95,1.42-1.51,0,0,0,0,0,0,3.46-4.85,8.16-16.68,10.61-23.16.57-1.5,2.69-1.52,3.25-.02,2.77,7.32,8.43,21.5,11.91,24.7,5.23,4.81,11.99,7.94,17.48,9.87,0,0,.01,0,.02,0l3.78,1.03c1.71.47,1.71,2.89,0,3.36Z"/>
</svg>