<?xml version="1.0" encoding="UTF-8"?>
<svg id="Layer_1" data-name="Layer 1" xmlns="http://www.w3.org/2000/svg" xmlns:xlink="http://www.w3.org/1999/xlink" viewBox="0 0 1000 1000">
  <defs>
    <style>
      .cls-1 {
        fill: #f4f4f4;
      }

      .cls-2 {
        fill: #160078;
      }

      .cls-3 {
        fill: url(#linear-gradient);
      }
    </style>
    <linearGradient id="linear-gradient" x1="434.56" y1="428.28" x2="254.67" y2="428.28" gradientUnits="userSpaceOnUse">
      <stop offset="0" stop-color="#160078"/>
      <stop offset="1" stop-color="#f024ff"/>
    </linearGradient>
  </defs>
  <g>
    <path class="cls-3" d="M384.18,453.77c17.9-.85,34.36,3.95,50.32,11.11,1.36.61,1.62,1.17,1.65,2.64.24,12.38-2.22,24.07-8.96,34.58-8.91,13.9-21.56,20.97-38.24,20.93-40.3-.1-80.61-.07-120.91.04-3.22,0-4.08-.89-4-4.07.61-24.26,11.21-43.61,28.92-59.51,2.86-2.57,6-4.81,9.9-7.07-4.51-.68-8.47-1.19-12.41-1.89-11.27-2.01-22.48-4.27-32.16-10.91-5.97-4.1-11.01-8.94-12.21-16.65-.85-5.46,1.65-10,7.04-11.61,3.97-1.18,8.06-1.95,12.06-3.04,11.54-3.14,15.81-8.16,17.17-20.04,2.79-24.45,21.36-45.91,45.32-52.38,37.63-10.17,75.83,12.67,83.59,50.86,5.33,26.23-3.54,47.86-24.42,64.55-.82.65-1.69,1.24-2.53,1.87-.05.04-.04.16-.12.58Z"/>
    <g>
      <path class="cls-1" d="M313.51,442.91c-17.36-.57-34.06-3.93-49.65-11.85-2.87-1.46-5.77-3.01-7.78-5.67-2.13-2.82-1.55-4.57,1.84-5.36,2.94-.68,5.94-1.08,8.88-1.73,5.46-1.22,10.29-3.7,14.74-7.12,5.25-4.02,9.47-3.7,14.14,1.09,7.04,7.21,14.36,14.06,22.97,19.39,1.35.84,2.35,2.08,3.05,3.52,1.85,3.79.29,6.68-3.83,7.39-1.46.25-2.9.4-4.37.34Z"/>
      <path class="cls-1" d="M369.25,387.22h-.02c-3.83-1.35-8.53-3.53-12.18-6.88-2.42-2.23-6.37-12.11-8.29-17.2-.4-1.05-1.87-1.04-2.27.01-1.7,4.51-4.98,12.75-7.39,16.13h0c-.33.4-.66.75-.99,1.06-.23.21-.44.42-.64.63,0,0,0,0-.01.01-3.53,2.98-7.85,4.98-11.42,6.24h-.01s-2.63.72-2.63.72c-1.19.32-1.19,2.01,0,2.34l2.91.8c.31.1.8.26,1.11.36,2.94,1.13,6.24,2.73,9.13,4.94,0,0,.02.02.03.03.4.45.87.93,1.43,1.45.86.79,1.71,1.89,2.52,3.17h0c2.18,3.97,4.66,10.23,6.07,13.97.4,1.05,1.88,1.05,2.27,0,1.87-5.12,5.66-14.92,8.08-17.14,3.3-3.04,7.48-5.11,11.08-6.48h.02c.32-.09.63-.19.93-.3l2.91-.8c1.19-.33,1.19-2.02,0-2.34l-2.63-.72Z"/>
    </g>
  </g>
  <path class="cls-2" d="M731.48,502.83c-.11,0-10.86.91-24.49-5.48,7.84-15.15,9.07-36.85-1.67-46.12-3.45-2.98-8.67-2.59-11.65.85-2.97,3.44-2.59,8.67.86,11.65,2.91,2.51,3.23,14.77-1.54,24.79-3.39-2.74-6.63-5.87-9.67-9.31-7.25-8.21-13.59-17.11-18.4-25.8,3.64-2.97,7.21-5.92,10.81-9.07,15.3-13.38,14.22-28.62,6.36-37.79-7.68-8.97-22.92-12.81-34.15-3.38-5.19,4.36-8.24,10.79-8.83,18.6-.58,7.73,1.26,17.1,5.33,27.14-16.35,13.97-32.16,30.99-17.86,55.91,5.91,10.31,16.84,16.51,30.78,17.46,1.19.08,2.39.12,3.59.12h.06c12.8,0,25.92-4.46,35.29-11.97,19.06,10.12,34.93,9,36.71,8.84,4.49-.43,7.82-4.45,7.42-8.96-.4-4.48-4.41-7.85-8.94-7.49ZM664.86,431.91c-2.3,2.01-4.62,3.96-6.92,5.86-1.84-5.63-2.66-10.71-2.35-14.77.25-3.32,1.25-5.74,2.97-7.18,1.26-1.05,2.79-1.61,4.44-1.61,2.41,0,4.93,1.18,6.55,3.09,4.65,5.43-1.73,12.03-4.69,14.62ZM681.61,500.54c-6.78,3.86-15.29,5.82-23.13,5.27-4.78-.33-13.43-1.96-17.58-9.2-7.17-12.49-2.21-20.56,11.12-32.4,5.14,8.81,11.5,17.52,18.92,25.93,3.36,3.8,6.94,7.29,10.67,10.4Z"/>
  <path class="cls-2" d="M531.05,408.69c-3.88-3.18-8.28-5.61-13.21-7.39-9.89-3.56-21.78-3.56-31.83,0-4.99,1.78-9.35,4.21-12.99,7.22-3.07,2.53-5.63,5.47-7.63,8.71-2.75,4.47-4.21,9.95-4.21,15.88v85.26c0,1.99,1.62,3.61,3.59,3.61h30.06c2,0,3.61-1.62,3.61-3.61v-13.77c0-1.97,1.59-3.59,3.56-3.59s3.56,1.62,3.56,3.59v13.77c0,1.99,1.62,3.61,3.61,3.61h30.06c1.97,0,3.58-1.62,3.58-3.61v-83.75c0-10.32-4.29-19.76-11.75-25.93ZM505.55,478.85c0,1.97-1.59,3.56-3.56,3.56s-3.56-1.59-3.56-3.56v-60.08c0-4.42,2.48-4.91,3.56-4.91s3.56.49,3.56,4.91v60.08Z"/>
  <path class="cls-2" d="M582.27,400.41h-20.76c-4.53,0-8.25,3.69-8.25,8.25v105.07c0,4.53,3.72,8.25,8.25,8.25h20.76c4.56,0,8.25-3.72,8.25-8.25v-105.07c0-4.56-3.69-8.25-8.25-8.25Z"/>
  <path class="cls-2" d="M323.42,543.2h-69.55c-4.56,0-8.25,3.69-8.25,8.25v10.97c0,4.56,3.69,8.25,8.25,8.25h11.05c2.83,0,5.09,2.29,5.09,5.09v80.73c0,4.56,3.72,8.28,8.28,8.28h20.7c4.58,0,8.28-3.72,8.28-8.28v-80.73c0-2.8,2.29-5.09,5.09-5.09h11.05c4.56,0,8.28-3.69,8.28-8.25v-10.97c0-4.56-3.72-8.25-8.28-8.25Z"/>
  <path class="cls-2" d="M414.52,543.2h-23.21c-3.85,0-7.01,3.13-7.01,7.01v43.99c0,2.53-1.35,4.02-3.56,4.02s-3.59-1.48-3.59-4.02v-43.99c0-3.88-3.15-7.01-7.01-7.01h-23.21c-3.88,0-7.01,3.13-7.01,7.01v107.53c0,3.88,3.13,7.04,7.01,7.04h23.21c3.86,0,7.01-3.15,7.01-7.04v-43.99c0-2.51,1.35-4.02,3.59-4.02s3.56,1.51,3.56,4.02v43.99c0,3.88,3.15,7.04,7.01,7.04h23.21c3.88,0,7.03-3.15,7.03-7.04v-107.53c0-3.88-3.15-7.01-7.03-7.01Z"/>
  <path class="cls-2" d="M465.17,543.2h-26.85c-2.86,0-5.2,2.32-5.2,5.2v111.14c0,2.88,2.35,5.23,5.2,5.23h26.85c2.86,0,5.2-2.35,5.2-5.23v-111.14c0-2.88-2.35-5.2-5.2-5.2Z"/>
  <path class="cls-2" d="M561.27,543.2h-32.67c-1.27,0-2.29,1.02-2.29,2.26v49.68c0,.89-.65,1.62-1.54,1.73-.89.13-1.7-.46-1.91-1.32l-11.86-50.6c-.24-1.02-1.16-1.75-2.21-1.75h-24.56c-1.27,0-2.29,1.02-2.29,2.26v117.01c0,1.27,1.02,2.29,2.29,2.29h32.67c1.27,0,2.29-1.02,2.29-2.29v-49.65c0-.92.65-1.64,1.54-1.75h.22c.81,0,1.51.54,1.7,1.35l11.86,50.57c.24,1.05,1.16,1.78,2.24,1.78h24.53c1.27,0,2.29-1.02,2.29-2.29v-117.01c0-1.24-1.02-2.26-2.29-2.26Z"/>
  <path class="cls-2" d="M652.76,606.38h-31.43c-1.62,0-2.91,1.32-2.91,2.91v41.73c0,2.51-1.35,4.02-3.59,4.02s-3.56-1.51-3.56-4.02v-93.72c0-3.96,2.51-4.37,3.56-4.37s3.59.4,3.59,4.37v19.7c0,1.59,1.29,2.91,2.91,2.91h31.43c1.59,0,2.91-1.32,2.91-2.91,0-8.65-2.91-16.44-8.14-22.13-1.16-1.24-2.45-2.45-3.8-3.56-3.72-3.02-8.11-5.45-13.02-7.22-4.96-1.78-10.27-2.67-15.88-2.67s-10.94.89-15.96,2.67c-4.99,1.78-9.38,4.21-13.02,7.22-3.75,3.1-6.71,6.79-8.87,10.92-1.97,3.77-2.97,8.25-2.97,13.29v57.93c0,4.47,1.08,8.76,3.18,12.67,2.13,3.96,5.04,7.52,8.65,10.51,3.64,3.02,8.01,5.44,13.02,7.22,5.01,1.78,10.38,2.67,15.96,2.67,4.45,0,8.73-.57,12.72-1.7,4.04-1.16,7.74-2.72,11.02-4.66.22-.13,17.09-9.3,17.09-22.78v-28.09c0-1.59-1.32-2.91-2.91-2.91Z"/>
  <path class="cls-2" d="M712.3,586.65h29.22c2.21,0,4.02-1.81,4.02-4.02v-5.26c0-10.3-4.29-19.76-11.75-25.9-3.91-3.18-8.3-5.61-13.21-7.39-9.92-3.56-21.86-3.53-31.86-.08-4.99,1.7-9.35,4.1-12.99,7.12-3.61,3.02-6.55,6.52-8.65,10.43-2.1,3.88-3.18,8.06-3.18,12.43v14.72c0,3.91,1,6.98,2.99,9.14,2.05,2.26,4.66,4.02,7.71,5.23,3.15,1.27,6.63,2.21,10.35,2.78,3.85.59,7.41,1.19,10.7,1.78,3.34.62,6.23,1.46,8.52,2.48,3.4,1.56,4.12,4.1,4.12,5.93v34.1c0,4.42-2.51,4.91-3.59,4.91s-3.56-.49-3.56-4.91v-28.38c0-2.21-1.81-3.99-4.02-3.99h-29.22c-2.21,0-4.02,1.78-4.02,3.99v11.7c0,4.47,1.08,8.76,3.18,12.67,2.13,3.96,5.04,7.52,8.65,10.51,3.64,3.02,8.01,5.44,13.02,7.22,10.03,3.56,21.97,3.53,31.83.08,4.93-1.7,9.33-4.1,13.02-7.12,3.07-2.53,5.66-5.39,7.66-8.54,2.8-4.42,4.29-9.97,4.29-16.01v-16.39c0-4.99-1.02-8.76-3.05-11.21-2.05-2.53-4.61-4.39-7.63-5.55-3.13-1.19-6.55-1.86-10.24-2.05-3.88-.16-7.49-.4-10.7-.7-1.08-.11-2.08-.22-3.05-.38-5.55-.89-9.73-5.88-9.73-11.62v-26.55c0-4.42,2.51-4.88,3.56-4.88s3.59.46,3.59,4.88v24.83c0,2.21,1.78,4.02,4.02,4.02Z"/>
</svg>